<?xml version="1.0" encoding="UTF-8"?>
<svg version="1.1" xmlns="http://www.w3.org/2000/svg" width="512" height="512">
<path d="M0 0 C1.09280273 -0.00189835 2.18560547 -0.00379669 3.31152344 -0.00575256 C6.9157639 -0.00944692 10.51980089 0.00124473 14.12402344 0.01245117 C16.66811093 0.01364631 19.21219886 0.01409543 21.75628662 0.01383972 C27.10252846 0.01540354 32.44870178 0.02342134 37.79492188 0.03710938 C43.2037875 0.05091189 48.61260089 0.05814062 54.02148438 0.05761719 C108.32098243 0.05286363 108.32098243 0.05286363 133.49517822 0.98457336 C134.54010059 1.02104823 134.54010059 1.02104823 135.60613251 1.05825996 C137.42891088 1.12304518 139.25143028 1.19501015 141.07391357 1.2676239 C143.70959066 1.43769311 143.70959066 1.43769311 145.73339844 0.24291992 C147.70644161 0.13830631 149.68305462 0.09900468 151.65884399 0.08901978 C152.92268921 0.08041931 154.18653442 0.07181885 155.48867798 0.06295776 C156.89788777 0.05852191 158.307098 0.05422361 159.71630859 0.05004883 C161.19488721 0.04214753 162.67346391 0.03387856 164.15203857 0.02526855 C169.02549387 -0.00100124 173.89895783 -0.01628803 178.77246094 -0.03051758 C180.45652649 -0.03587978 182.14059199 -0.04125729 183.82465744 -0.04664993 C190.84692707 -0.06830728 197.86919441 -0.08703067 204.89148903 -0.09827232 C214.90690948 -0.11441458 224.92193586 -0.14731925 234.93720782 -0.20467317 C241.99998487 -0.24371166 249.06265821 -0.26294596 256.12554014 -0.26819289 C260.32948467 -0.27180738 264.53300954 -0.28339841 268.73683548 -0.31629562 C304.51214905 -0.58216683 338.42704926 4.00108239 365.40917969 29.80151367 C367.87471246 32.25974116 370.30851346 34.74467708 372.73339844 37.24291992 C373.57644531 38.06920898 374.41949219 38.89549805 375.28808594 39.74682617 C386.93412287 51.63471371 393.51053087 67.37249613 397.73339844 83.24291992 C397.9997675 84.22533519 398.26613656 85.20775046 398.54057741 86.21993589 C400.55287189 94.19342264 401.16444548 101.61021012 401.12780762 109.81335449 C401.13389872 111.11638189 401.13998982 112.41940928 401.14626551 113.76192236 C401.16251651 117.34057769 401.16037776 120.91901061 401.15489054 124.49768972 C401.1522017 128.37249988 401.16678692 132.24725318 401.1789856 136.12203979 C401.19996656 143.69996156 401.20458458 151.27780669 401.20279771 158.85575408 C401.20148596 165.02279788 401.20531521 171.18981795 401.21272278 177.3568573 C401.21482218 179.13875119 401.21691978 180.92064508 401.2190156 182.70253897 C401.22058089 184.03326037 401.22058089 184.03326037 401.2221778 185.39086503 C401.24105184 202.14386877 401.24003917 218.89682866 401.23320848 235.64983863 C401.22763954 250.93469593 401.24843579 266.21938529 401.28156894 281.50420338 C401.31540744 297.23789339 401.33046138 312.9715032 401.32585192 328.70523024 C401.32361689 337.52262955 401.32870725 346.33987382 401.35374451 355.15724182 C401.37488979 362.66736969 401.37822026 370.17725758 401.35944492 377.68739575 C401.35036631 381.50990134 401.34889716 385.33196112 401.36980057 389.15443039 C401.54727596 423.93168414 394.54949991 453.76914792 369.73339844 479.24291992 C369.00378906 480.02280273 368.27417969 480.80268555 367.52246094 481.60620117 C352.75560393 497.02072735 333.18061067 505.53354692 312.74511719 510.66479492 C310.75354401 511.06134174 310.75354401 511.06134174 309.73339844 512.24291992 C308.01725901 512.34473692 306.2968996 512.37583974 304.57774734 512.37993431 C303.45312001 512.38500885 302.32849268 512.3900834 301.16978574 512.39531171 C299.29296806 512.39605835 299.29296806 512.39605835 297.37823486 512.39682007 C296.06095925 512.40120232 294.74368364 512.40558458 293.38649058 512.41009963 C289.71238065 512.42210081 286.03828387 512.4277219 282.36415815 512.43228078 C278.40735475 512.43822448 274.45056717 512.44983835 270.49377441 512.46057129 C260.92188822 512.4851387 251.34999675 512.49973654 241.77808869 512.51263136 C239.07231654 512.51634262 236.36654491 512.52031598 233.66077328 512.52438402 C216.84850641 512.54963935 200.03623873 512.57168699 183.22395706 512.58411217 C179.32573697 512.5870418 175.4275169 512.59000345 171.52929688 512.59301758 C170.56043048 512.59376363 169.59156408 512.59450968 168.5933381 512.59527834 C152.93913903 512.60790012 137.28505437 512.64107566 121.63090864 512.68281941 C105.54504831 512.72536061 89.45924628 512.74882196 73.37332988 512.75403273 C64.34782042 512.75743502 55.32248909 512.76904812 46.29703522 512.80213547 C38.59998853 512.83030619 30.90315643 512.84106189 23.20606223 512.82994001 C19.28641638 512.82479472 15.36721858 512.82736563 11.44763947 512.85240555 C-24.46499599 513.06917939 -54.17756972 505.7001661 -80.26660156 480.24291992 C-81.06839844 479.51459961 -81.87019531 478.7862793 -82.69628906 478.03588867 C-95.37317666 466.21436201 -104.15862561 448.99146026 -108.44238281 432.39916992 C-109.20655182 429.26762994 -109.20655182 429.26762994 -110.30238509 426.4138341 C-111.27935929 423.20096496 -111.51719768 420.69703459 -111.51828384 417.35204315 C-111.52349934 416.19079312 -111.52871483 415.02954309 -111.53408837 413.83310366 C-111.52962693 412.56676954 -111.52516549 411.30043542 -111.52056885 409.99572754 C-111.52287421 408.62951475 -111.52605125 407.26330321 -111.53002334 405.89709425 C-111.53836955 402.14827929 -111.53424686 398.3995662 -111.5280509 394.65075088 C-111.52352671 390.60570699 -111.53051001 386.56068066 -111.53601074 382.51564026 C-111.54490673 374.59354558 -111.54298181 366.67148879 -111.53718546 358.74939263 C-111.53266979 352.31127303 -111.53205566 345.87316406 -111.53423309 339.43504333 C-111.53453956 338.51894404 -111.53484603 337.60284475 -111.53516178 336.65898487 C-111.53580123 334.79798146 -111.53644965 332.93697805 -111.53710696 331.07597464 C-111.54281086 313.62290491 -111.53625142 296.16985619 -111.52550623 278.7167899 C-111.51657066 263.73932402 -111.51812269 248.76188915 -111.52734375 233.78442383 C-111.53804532 216.39405637 -111.54226153 199.00370733 -111.53611922 181.61333704 C-111.53548212 179.75915687 -111.53485338 177.90497669 -111.53423309 176.05079651 C-111.53392454 175.13849021 -111.53361599 174.22618391 -111.53329809 173.28623196 C-111.53157081 166.8554032 -111.53448696 160.42458611 -111.5391922 153.99375916 C-111.54479977 146.15737392 -111.54328718 138.32102875 -111.53263071 130.48464811 C-111.52737234 126.48596451 -111.52532008 122.48734774 -111.53192902 118.48866463 C-111.53788714 114.82840673 -111.53461563 111.16827763 -111.52397391 107.50803143 C-111.52068048 105.55626621 -111.52721211 103.60449207 -111.53408837 101.65273619 C-111.52887288 100.49148615 -111.52365738 99.33023612 -111.51828384 98.13379669 C-111.51795914 97.13382802 -111.51763443 96.13385934 -111.51729989 95.10358858 C-111.23624685 91.89654839 -110.37078022 89.25818608 -109.26660156 86.24291992 C-108.72253429 84.13937269 -108.18102096 82.03516382 -107.64160156 79.93041992 C-99.79917314 52.49638986 -81.43105405 29.76332866 -56.98144531 15.22729492 C-45.32605569 8.81218896 -33.34905231 4.52220132 -20.26660156 2.24291992 C-19.64213261 2.08298396 -19.01766365 1.923048 -18.37427139 1.7582655 C-12.19653708 0.18809252 -6.35263186 -0.03524398 0 0 Z " fill="#0F9CD8" transform="translate(111.2666015625,-0.242919921875)"/>
<path d="M0 0 C18.15 0 36.3 0 55 0 C55 62.37 55 124.74 55 189 C36.85 189 18.7 189 0 189 C0 126.63 0 64.26 0 0 Z " fill="#FBFDFE" transform="translate(321,163)"/>
<path d="M0 0 C18.15 0 36.3 0 55 0 C55 53.79 55 107.58 55 163 C37.18 163 19.36 163 1 163 C0 162 0 162 -0.12304783 159.34693813 C-0.12212604 158.15321622 -0.12120424 156.9594943 -0.12025452 155.729599 C-0.12110894 155.06720909 -0.12196337 154.40481918 -0.12284368 153.72235686 C-0.12450033 151.4866713 -0.11897414 149.25105958 -0.11352539 147.01538086 C-0.11324353 145.41919456 -0.11340123 143.82300813 -0.1139679 142.2268219 C-0.11425592 137.87990105 -0.10835835 133.53300756 -0.10139394 129.18609309 C-0.09516128 124.64836053 -0.09455667 120.11062741 -0.09336853 115.57289124 C-0.09025495 106.9739216 -0.08204122 98.37496461 -0.07201904 89.77600056 C-0.06085872 79.98898272 -0.05534766 70.20196429 -0.05032361 60.41494167 C-0.03985862 40.27661914 -0.02151282 20.13831396 0 0 Z " fill="#FAFDFE" transform="translate(173,189)"/>
<path d="M0 0 C17.82 0 35.64 0 54 0 C54 53.79 54 107.58 54 163 C36.18 163 18.36 163 0 163 C0 109.21 0 55.42 0 0 Z " fill="#FDFEFE" transform="translate(57,189)"/>
<path d="M0 0 C65.34 0 130.68 0 198 0 C198 4.62 198 9.24 198 14 C167.64 14 137.28 14 106 14 C106 71.42 106 128.84 106 188 C101.38 188 96.76 188 92 188 C92 130.58 92 73.16 92 14 C61.64 14 31.28 14 0 14 C0 9.38 0 4.76 0 0 Z " fill="#F9FCFE" transform="translate(30,163)"/>
<path d="M0 0 C24.55336774 -1.11606217 47.15689338 9.87310059 65 26 C81.25250649 40.93602953 93.88994826 61.98443977 95.14086914 84.54003906 C95.70848262 101.53714644 95.13552603 117.67761351 87 133 C86.60425781 133.82113281 86.20851563 134.64226562 85.80078125 135.48828125 C73.75860956 159.3310911 52.19402572 176.59825233 27 185 C17.9091766 187.56342204 9.46504507 189 0 189 C0 183.72 0 178.44 0 173 C1.74410156 172.90525391 1.74410156 172.90525391 3.5234375 172.80859375 C25.11380208 171.29208436 42.50636412 163.226964 58 148 C58.61488281 147.39800781 59.22976563 146.79601562 59.86328125 146.17578125 C75.84352793 129.24039339 79.6376 108.79508414 79.08447266 86.23828125 C78.35487214 66.90597622 68.82204318 49.80530902 55.05078125 36.60546875 C46.52432956 29.07949878 36.63555558 23.90635687 26 20 C25.40735352 19.75048584 24.81470703 19.50097168 24.20410156 19.24389648 C18.99803074 17.11443472 14.08346123 16.30810039 8.5 15.8125 C7.67757813 15.73064453 6.85515625 15.64878906 6.0078125 15.56445312 C4.00614225 15.36661362 2.00318047 15.18191276 0 15 C0 10.05 0 5.1 0 0 Z " fill="#F6FBFD" transform="translate(386,163)"/>
<path d="M0 0 C4.95 0 9.9 0 15 0 C15 62.37 15 124.74 15 189 C10.38 189 5.76 189 1 189 C1 160.29 1 131.58 1 102 C-17.15 102 -35.3 102 -54 102 C-54 97.05 -54 92.1 -54 87 C-36.18 87 -18.36 87 0 87 C0 58.29 0 29.58 0 0 Z " fill="#F1F9FC" transform="translate(293,163)"/>
<path d="M0 0 C0.33 0 0.66 0 1 0 C2.78036285 25.75591593 -7.15939695 51.08887661 -23.32421875 70.83984375 C-25.4899174 73.29279039 -27.71688259 75.65637594 -30 78 C-30.72960937 78.77988281 -31.45921875 79.55976563 -32.2109375 80.36328125 C-46.97779451 95.77780743 -66.55278776 104.290627 -86.98828125 109.421875 C-88.97985443 109.81842181 -88.97985443 109.81842181 -90 111 C-91.4887186 111.08669432 -92.981445 111.10703494 -94.47265625 111.09765625 C-95.37177734 111.09443359 -96.27089844 111.09121094 -97.19726562 111.08789062 C-98.61555664 111.07532227 -98.61555664 111.07532227 -100.0625 111.0625 C-101.01189453 111.05798828 -101.96128906 111.05347656 -102.93945312 111.04882812 C-105.29303065 111.0370011 -107.64648477 111.02052025 -110 111 C-110 110.67 -110 110.34 -110 110 C-109.41210693 109.93006836 -108.82421387 109.86013672 -108.21850586 109.78808594 C-77.60326401 106.0742526 -47.47057433 96.7153088 -27 72 C-18.51015621 60.95420324 -11.51030196 49.23021908 -7 36 C-6.75636719 35.37609375 -6.51273437 34.7521875 -6.26171875 34.109375 C-2.26225504 23.36209815 -0.90236857 11.36984397 0 0 Z " fill="#D0E8F2" transform="translate(511,401)"/>
<path d="M0 0 C2.16769433 3.25154149 3.2151854 6.4431998 4.375 10.125 C14.67605903 41.71667006 35.55575115 61.12414018 64 77 C63.01 77.495 63.01 77.495 62 78 C40.57924775 69.72447925 22.04753348 51.87659675 11 32 C10.67563965 31.4239502 10.3512793 30.84790039 10.01708984 30.25439453 C4.9105625 21.0780033 0 10.68884224 0 0 Z " fill="#CFE8F2" transform="translate(2,425)"/>
<path d="M0 0 C4.81029354 1.86427644 7.93128147 5.83185852 11.40234375 9.48046875 C14.68563805 12.86452912 17.96253269 15.50335139 22 18 C23.57587891 18.99 23.57587891 18.99 25.18359375 20 C30.74337407 23.41729594 36.30044137 26.818851 42 30 C41.01 30.495 41.01 30.495 40 31 C24.01734759 24.82539091 11.45422661 13.42905441 0 1 C0 0.67 0 0.34 0 0 Z " fill="#DDEEF4" transform="translate(24,472)"/>
<path d="M0 0 C-0.845625 0.25394531 -1.69125 0.50789063 -2.5625 0.76953125 C-3.696875 1.11371094 -4.83125 1.45789063 -6 1.8125 C-7.11375 2.14894531 -8.2275 2.48539062 -9.375 2.83203125 C-11.22187262 3.42709042 -13.07184825 4.03099355 -14.85351562 4.79956055 C-20.47420736 7.20629291 -25.43637929 7.35936134 -31.5 7.1875 C-32.4178125 7.17396484 -33.335625 7.16042969 -34.28125 7.14648438 C-36.52146803 7.11148097 -38.76040594 7.06238869 -41 7 C-41 6.67 -41 6.34 -41 6 C-40.41210693 5.93006836 -39.82421387 5.86013672 -39.21850586 5.78808594 C-28.18983576 4.45023459 -17.52679188 2.96785905 -6.8984375 -0.328125 C-4.06026016 -0.98603134 -2.68203217 -1.02048053 0 0 Z " fill="#DFEFF5" transform="translate(442,505)"/>
<path d="M0 0 C0.66 0.33 1.32 0.66 2 1 C-0.45023758 3.50804718 -2.91147598 6.0050076 -5.375 8.5 C-6.07367188 9.21542969 -6.77234375 9.93085937 -7.4921875 10.66796875 C-8.1625 11.34472656 -8.8328125 12.02148438 -9.5234375 12.71875 C-10.14138184 13.34716797 -10.75932617 13.97558594 -11.39599609 14.62304688 C-13 16 -13 16 -15 16 C-15.20625 16.721875 -15.4125 17.44375 -15.625 18.1875 C-17.45248163 21.9255306 -19.70438806 23.49246917 -23 26 C-18.3584344 15.77917879 -8.88408106 6.66306079 0 0 Z " fill="#48B2DF" transform="translate(42,23)"/>
<path d="M0 0 C0.66 0.33 1.32 0.66 2 1 C-3.48518894 7.19623195 -9.07562035 13.22090487 -15 19 C-15 16 -15 16 -12.734375 13.4765625 C-11.74693849 12.51840309 -10.75178056 11.56815218 -9.75 10.625 C-6.23274564 7.2646835 -2.95918421 3.87512217 0 0 Z " fill="#E9F2F6" transform="translate(488,468)"/>
<path d="M0 0 C0.33 0.99 0.66 1.98 1 3 C-2.3 6.3 -5.6 9.6 -9 13 C-9.33 12.01 -9.66 11.02 -10 10 C-6.7 6.7 -3.4 3.4 0 0 Z " fill="#20A2DA" transform="translate(483,471)"/>
<path d="M0 0 C0.66 0.33 1.32 0.66 2 1 C0.42617053 2.65492374 -1.15942902 4.29866024 -2.75 5.9375 C-3.63171875 6.85402344 -4.5134375 7.77054688 -5.421875 8.71484375 C-7.80176695 10.82429343 -8.9099375 11.66067071 -12 12 C-8.32167983 7.47384007 -4.58913637 3.60575001 0 0 Z " fill="#55B8E1" transform="translate(42,23)"/>
<path d="M0 0 C0.33 0.66 0.66 1.32 1 2 C-1.34375 8.5625 -1.34375 8.5625 -5 11 C-3.77472971 6.94718288 -2.30119506 3.55639236 0 0 Z " fill="#45B1DF" transform="translate(15,54)"/>
<path d="M0 0 C3.625 -0.1875 3.625 -0.1875 7 0 C4.64031256 2.09749995 3.45383006 2.96905704 0.25 3.1875 C-0.86375 3.0946875 -0.86375 3.0946875 -2 3 C-1.34 2.01 -0.68 1.02 0 0 Z " fill="#EFF5F6" transform="translate(418,509)"/>
<path d="M0 0 C1.32 0.66 2.64 1.32 4 2 C0.38026598 3.31626692 -2.09567131 4 -6 4 C-6 3.34 -6 2.68 -6 2 C-3 1 -3 1 0 2 C0 1.34 0 0.68 0 0 Z " fill="#2BA8DC" transform="translate(407,331)"/>
</svg>
