<?xml version="1.0" encoding="UTF-8"?>
<svg version="1.1" xmlns="http://www.w3.org/2000/svg" width="400" height="400">
<path d="M0 0 C1.85531822 -0.00436143 3.71063465 -0.00954926 5.56594849 -0.01548767 C10.54982689 -0.02873775 15.53362883 -0.02947196 20.51752138 -0.02692437 C24.70643181 -0.02584469 28.89532739 -0.03076343 33.0842346 -0.03552979 C42.98390237 -0.04657747 52.88353219 -0.04708977 62.78320312 -0.04101562 C72.92943643 -0.03498498 83.07553075 -0.04727476 93.22174037 -0.06858569 C101.99184147 -0.08631563 110.76189879 -0.09218511 119.53201711 -0.08894795 C124.74386279 -0.08715239 129.95560939 -0.08959522 135.16743851 -0.10366249 C177.24612905 -0.20743671 215.51282629 0.28482427 248.07568359 30.5715332 C260.82333657 43.64023818 268.82220774 59.29343419 272.89990234 76.9621582 C273.05475098 77.61893555 273.20959961 78.27571289 273.36914062 78.95239258 C276.53487678 93.6546362 277.01075258 108.58753112 276.98706055 123.56225586 C276.99142198 125.41757408 276.99660981 127.2728905 277.00254822 129.12820435 C277.01579829 134.11208275 277.0165325 139.09588469 277.01398492 144.07977724 C277.01290523 148.26868767 277.01782398 152.45758325 277.02259034 156.64649045 C277.03363802 166.54615823 277.03415032 176.44578805 277.02807617 186.34545898 C277.02204553 196.49169229 277.03433531 206.63778661 277.05564624 216.78399622 C277.07337618 225.55409733 277.07924565 234.32415465 277.0760085 243.09427297 C277.07421293 248.30611865 277.07665576 253.51786525 277.09072304 258.72969437 C277.19449726 300.80838491 276.70223628 339.07508215 246.41552734 371.63793945 C233.34682237 384.38559243 217.69362635 392.3844636 200.02490234 396.4621582 C199.368125 396.61700684 198.71134766 396.77185547 198.03466797 396.93139648 C183.33242435 400.09713263 168.39952943 400.57300844 153.42480469 400.54931641 C151.56948647 400.55367784 149.71417004 400.55886567 147.8588562 400.56480408 C142.87497779 400.57805415 137.89117586 400.57878836 132.90728331 400.57624078 C128.71837288 400.57516109 124.5294773 400.58007984 120.34057009 400.5848462 C110.44090232 400.59589388 100.5412725 400.59640618 90.64160156 400.59033203 C80.49536825 400.58430138 70.34927394 400.59659117 60.20306432 400.6179021 C51.43296322 400.63563204 42.6629059 400.64150151 33.89278758 400.63826436 C28.6809419 400.63646879 23.4691953 400.63891162 18.25736618 400.6529789 C-23.82132436 400.75675312 -62.0880216 400.26449214 -94.65087891 369.9777832 C-107.39853188 356.90907822 -115.39740305 341.25588221 -119.47509766 323.5871582 C-119.62994629 322.93038086 -119.78479492 322.27360352 -119.94433594 321.59692383 C-123.11007209 306.89468021 -123.5859479 291.96178529 -123.56225586 276.98706055 C-123.56661729 275.13174233 -123.57180512 273.2764259 -123.57774353 271.42111206 C-123.59099361 266.43723365 -123.59172782 261.45343172 -123.58918023 256.46953917 C-123.58810055 252.28062873 -123.59301929 248.09173316 -123.59778565 243.90282595 C-123.60883333 234.00315818 -123.60934563 224.10352836 -123.60327148 214.20385742 C-123.59724084 204.05762411 -123.60953062 193.9115298 -123.63084155 183.76532018 C-123.64857149 174.99521908 -123.65444097 166.22516176 -123.65120381 157.45504344 C-123.64940824 152.24319776 -123.65185108 147.03145116 -123.66591835 141.81962204 C-123.76969257 99.7409315 -123.27743159 61.47423426 -92.99072266 28.91137695 C-79.92201768 16.16372398 -64.26882167 8.16485281 -46.60009766 4.0871582 C-45.94332031 3.93230957 -45.28654297 3.77746094 -44.60986328 3.61791992 C-29.90761966 0.45218377 -14.97472474 -0.02369204 0 0 Z " fill="#0E9CD6" transform="translate(123.28759765625,-0.274658203125)"/>
<path d="M0 0 C13.86 0 27.72 0 42 0 C42 48.51 42 97.02 42 147 C28.14 147 14.28 147 0 147 C0 98.49 0 49.98 0 0 Z " fill="#FCFEFE" transform="translate(252,128)"/>
<path d="M0 0 C14.19 0 28.38 0 43 0 C43 41.91 43 83.82 43 127 C28.81 127 14.62 127 0 127 C0 85.09 0 43.18 0 0 Z " fill="#FEFEFF" transform="translate(45,148)"/>
<path d="M0 0 C14.19 0 28.38 0 43 0 C43 41.91 43 83.82 43 127 C28.81 127 14.62 127 0 127 C0 85.09 0 43.18 0 0 Z " fill="#F8FDFE" transform="translate(136,148)"/>
<path d="M0 0 C1.87640957 -0.00107632 3.7528188 -0.00302015 5.62922668 -0.00575256 C10.66596253 -0.01054598 15.70260799 -0.00301645 20.73933291 0.00720048 C26.03789569 0.01606674 31.33645634 0.01422193 36.63502502 0.01383972 C45.52037037 0.01477216 54.40568128 0.02340177 63.29101562 0.03710938 C73.54084493 0.05286428 83.79063668 0.05810605 94.04047722 0.05737382 C104.99822225 0.05669696 115.95595297 0.06364156 126.91369367 0.07282043 C130.05433981 0.07494417 133.19498362 0.07566054 136.33563042 0.07605934 C141.27780834 0.07706848 146.21995511 0.08321146 151.16212273 0.09322548 C152.96841745 0.09612959 154.77471576 0.09738012 156.58101273 0.09679794 C165.60751769 0.09499049 174.52943533 0.14875871 183.50610352 1.24291992 C181.72387695 5.11206055 181.72387695 5.11206055 179.76391602 6.28979492 C173.29021928 8.42398066 167.28511724 8.55262106 160.50610352 8.24291992 C160.50610352 7.58291992 160.50610352 6.92291992 160.50610352 6.24291992 C159.34343208 6.27717323 159.34343208 6.27717323 158.15727234 6.31211853 C147.83638733 6.61410994 137.51513389 6.90141777 127.19360352 7.18041992 C126.34345547 7.20346569 125.49330742 7.22651146 124.61739731 7.25025558 C91.01857869 8.15663107 57.42164927 8.61412329 23.81201172 8.87751007 C20.01717616 8.90777477 16.22237018 8.94109921 12.42756271 8.97468185 C9.82978183 8.99612139 7.23200562 9.01234744 4.63418579 9.02822876 C-2.70307129 9.08508065 -9.98048686 9.21013954 -17.28213501 10.02328491 C-20.91418835 10.38395946 -24.53542174 10.35095083 -28.18139648 10.30541992 C-28.89489258 10.3009082 -29.60838867 10.29639648 -30.34350586 10.29174805 C-32.06034122 10.28022566 -33.77713191 10.26230622 -35.49389648 10.24291992 C-35.49389648 10.90291992 -35.49389648 11.56291992 -35.49389648 12.24291992 C-40.57476445 13.08973125 -45.34218026 13.33330091 -50.49389648 13.24291992 C-50.49389648 13.90291992 -50.49389648 14.56291992 -50.49389648 15.24291992 C-54.94889648 15.73791992 -54.94889648 15.73791992 -59.49389648 16.24291992 C-59.49389648 16.90291992 -59.49389648 17.56291992 -59.49389648 18.24291992 C-60.76229174 18.7490729 -62.0337275 19.24761091 -63.30639648 19.74291992 C-64.0140918 20.02135742 -64.72178711 20.29979492 -65.45092773 20.58666992 C-67.49389648 21.24291992 -67.49389648 21.24291992 -70.49389648 21.24291992 C-70.53514648 21.84104492 -70.57639648 22.43916992 -70.61889648 23.05541992 C-71.49389648 25.24291992 -71.49389648 25.24291992 -74.43139648 26.99291992 C-77.49389648 28.24291992 -77.49389648 28.24291992 -79.49389648 28.24291992 C-79.98889648 29.72791992 -79.98889648 29.72791992 -80.49389648 31.24291992 C-82.74264561 33.70248928 -85.0862116 35.8930467 -87.61499023 38.06323242 C-94.31091964 43.82195754 -100.28650784 49.41336533 -102.49389648 58.24291992 C-103.15389648 58.24291992 -103.81389648 58.24291992 -104.49389648 58.24291992 C-108.7015842 68.43922364 -111.9286687 78.33588272 -112.28858948 89.41862488 C-112.45705617 92.55668804 -112.78209605 95.60226484 -113.21350193 98.71201611 C-115.02818419 112.29224056 -114.82910188 125.95862066 -114.86568189 139.6325357 C-114.8777866 143.29301534 -114.90161333 146.95341918 -114.92430115 150.61384583 C-114.96563247 157.53334114 -114.9981905 164.45284381 -115.0267753 171.37240249 C-115.07801385 183.75273704 -115.14056329 196.13300914 -115.21211571 208.51324254 C-115.23673134 212.84105028 -115.25629588 217.16884042 -115.27149785 221.49669111 C-115.27932536 223.54625268 -115.28925818 225.595792 -115.30004883 227.64533997 C-115.31298033 230.12112866 -115.32270544 232.5969376 -115.32823181 235.07275391 C-115.37334037 242.41007262 -115.75803385 249.64874144 -116.3789053 256.95566273 C-116.48381541 259.95473182 -116.12813375 262.3354817 -115.49389648 265.24291992 C-115.82389648 265.57291992 -116.15389648 265.90291992 -116.49389648 266.24291992 C-116.55739424 268.42951713 -116.5530289 270.61813192 -116.52124023 272.80541992 C-116.50857328 274.17390679 -116.4962139 275.54239653 -116.48413086 276.91088867 C-116.45950881 279.06543981 -116.43175867 281.21984033 -116.39794922 283.37426758 C-116.28199956 291.25336673 -116.32120814 298.60868952 -118.49389648 306.24291992 C-119.15389648 306.24291992 -119.81389648 306.24291992 -120.49389648 306.24291992 C-120.49389648 308.88291992 -120.49389648 311.52291992 -120.49389648 314.24291992 C-120.82389648 314.24291992 -121.15389648 314.24291992 -121.49389648 314.24291992 C-123.13217517 301.76211297 -123.78845865 289.53576539 -123.76855469 276.95532227 C-123.77291612 275.10000405 -123.77810395 273.24468762 -123.78404236 271.38937378 C-123.79729243 266.40549537 -123.79802664 261.42169344 -123.79547906 256.43780088 C-123.79439937 252.24889045 -123.79931812 248.05999487 -123.80408448 243.87108767 C-123.81513216 233.9714199 -123.81564446 224.07179008 -123.80957031 214.17211914 C-123.80353967 204.02588583 -123.81582945 193.87979152 -123.83714038 183.7335819 C-123.85487032 174.9634808 -123.8607398 166.19342347 -123.85750264 157.42330515 C-123.85570707 152.21145948 -123.85814991 146.99971288 -123.87221718 141.78788376 C-123.9759914 99.70919322 -123.48373042 61.44249598 -93.19702148 28.87963867 C-80.12831651 16.13198569 -64.4751205 8.13311452 -46.80639648 4.05541992 C-46.14961914 3.90057129 -45.4928418 3.74572266 -44.81616211 3.58618164 C-30.03858171 0.40422372 -15.04996578 -0.05101447 0 0 Z " fill="#45BAEB" transform="translate(123.493896484375,-0.242919921875)"/>
<path d="M0 0 C50.82 0 101.64 0 154 0 C154 3.63 154 7.26 154 11 C130.24 11 106.48 11 82 11 C82 55.88 82 100.76 82 147 C78.37 147 74.74 147 71 147 C71 102.12 71 57.24 71 11 C47.57 11 24.14 11 0 11 C0 7.37 0 3.74 0 0 Z " fill="#F6FCFD" transform="translate(25,128)"/>
<path d="M0 0 C17.31148827 -1.34894714 33.38824452 5.48027632 46.734375 16.1953125 C49.25048333 18.38356429 51.63639794 20.64860242 54 23 C54.69738281 23.66257813 55.39476562 24.32515625 56.11328125 25.0078125 C69.14002677 38.31279919 74.30525591 57.1505256 74.2421875 75.31225586 C73.94324988 92.77208125 67.28782647 107.8546831 56 121 C55.48050781 121.73734375 54.96101563 122.4746875 54.42578125 123.234375 C53.95527344 123.81703125 53.48476563 124.3996875 53 125 C52.34 125 51.68 125 51 125 C51 125.66 51 126.32 51 127 C47.51165493 129.90481676 43.73186712 132.41908256 40 135 C39.33355469 135.48210937 38.66710937 135.96421875 37.98046875 136.4609375 C27.12343952 143.88818625 13.06340151 147.48382969 0 147 C0 143.04 0 139.08 0 135 C1.16015625 134.84144531 2.3203125 134.68289063 3.515625 134.51953125 C17.57860637 132.473458 28.61742124 128.81804628 40 120 C40.82628906 119.38253906 41.65257812 118.76507813 42.50390625 118.12890625 C52.97146967 109.20117219 59.96368819 95.13422778 61.23754883 81.44775391 C62.16281844 62.51271186 59.35149187 47.20253989 46.75 32.34765625 C33.84448991 18.59418796 17.96693684 13.97570347 0 11 C0 7.37 0 3.74 0 0 Z " fill="#EEFBFC" transform="translate(302,128)"/>
<path d="M0 0 C0.07062844 15.36190607 0.12324809 30.72379971 0.15543652 46.08583069 C0.17079103 53.22150151 0.19165674 60.35707045 0.22631836 67.49267578 C0.25657613 73.72474752 0.27565746 79.95674537 0.28226548 86.18888855 C0.28611748 89.47728719 0.29658937 92.76542997 0.31719017 96.05377197 C0.54643312 134.21570225 -3.36374999 167.40604101 -30.296875 196.36328125 C-43.36557998 209.11093423 -59.01877599 217.1098054 -76.6875 221.1875 C-77.67266602 221.41977295 -77.67266602 221.41977295 -78.67773438 221.65673828 C-92.78811882 224.69503334 -107.13074797 225.2975581 -121.5078125 225.1953125 C-123.09634215 225.19156674 -124.68487416 225.1887272 -126.27340698 225.18673706 C-130.38648238 225.1792233 -134.49940885 225.15968574 -138.61242676 225.1373291 C-142.83664945 225.116601 -147.060897 225.10767866 -151.28515625 225.09765625 C-159.52350466 225.07642371 -167.76173363 225.04244297 -176 225 C-176 224.34 -176 223.68 -176 223 C-189.2 222.67 -202.4 222.34 -216 222 C-216 221.34 -216 220.68 -216 220 C-214.98777878 219.99191315 -213.97555756 219.98382629 -212.93266296 219.97549438 C-203.21610081 219.89673202 -193.49965688 219.80871412 -183.78325176 219.71247292 C-178.7924575 219.66331385 -173.80167677 219.61700554 -168.81079102 219.578125 C-148.94749074 219.42128052 -129.10614288 219.1920365 -109.26953125 218.0859375 C-108.55233099 218.04771503 -107.83513073 218.00949257 -107.09619713 217.97011185 C-99.97329462 217.58048324 -93.05555117 217.05738076 -86.1023407 215.41152954 C-82.70747637 214.74699074 -79.44787416 214.87230096 -76 215 C-76 214.34 -76 213.68 -76 213 C-73.36 212.67 -70.72 212.34 -68 212 C-68 211.01 -68 210.02 -68 209 C-67.01 208.9175 -66.02 208.835 -65 208.75 C-59.48691656 207.96879384 -54.92295906 205.25215939 -50.3125 202.25 C-47.66127406 200.8169049 -45.96954472 200.7454676 -43 201 C-42.74992188 200.39671875 -42.49984375 199.7934375 -42.2421875 199.171875 C-40.81643608 196.67905176 -39.52297478 195.78832345 -37.125 194.25 C-32.71129051 191.0871071 -31.09895403 187.88194219 -29 183 C-27.71354564 180.63703348 -26.35583981 178.32429682 -25 176 C-24.34 176 -23.68 176 -23 176 C-22.7525 175.01 -22.505 174.02 -22.25 173 C-20.82772622 168.02204176 -18.46286092 163.54075843 -15.88671875 159.06640625 C-13.30073475 154.3928279 -12.46481115 150.43622868 -12.17578125 145.1015625 C-12 143 -12 143 -11 141 C-10.68286275 137.36613567 -10.48828964 133.73152308 -10.28125 130.08984375 C-10 127 -10 127 -9 126 C-8.75941507 122.89146193 -8.59113822 119.80562208 -8.46875 116.69140625 C-8.42721802 115.68251846 -8.38568604 114.67363068 -8.34289551 113.63417053 C-7.72652015 97.28045041 -7.65229127 80.90942175 -7.47393799 64.54644775 C-7.4138016 59.06086001 -7.3503262 53.57532661 -7.28125 48.08984375 C-7.27186401 47.33951244 -7.26247803 46.58918114 -7.25280762 45.81611252 C-7.09305639 33.53007788 -6.6953913 21.26808662 -6 9 C-5.34 9 -4.68 9 -4 9 C-4 6.36 -4 3.72 -4 1 C-2 0 -2 0 0 0 Z " fill="#49B8E7" transform="translate(400,175)"/>
<path d="M0 0 C3.63 0 7.26 0 11 0 C11 48.51 11 97.02 11 147 C7.37 147 3.74 147 0 147 C0 124.56 0 102.12 0 79 C-13.86 79 -27.72 79 -42 79 C-42 75.37 -42 71.74 -42 68 C-28.14 68 -14.28 68 0 68 C0 45.56 0 23.12 0 0 Z " fill="#FBFEFE" transform="translate(230,128)"/>
<path d="M0 0 C2.66470674 0.0037383 5.32940264 0.00668004 7.99411011 0.00857544 C14.24092172 0.0147345 20.48766138 0.03106784 26.73444164 0.05127442 C33.85925984 0.0738095 40.98408191 0.08467062 48.10892701 0.09466529 C62.73671722 0.11544064 77.36445135 0.15050526 91.9921875 0.1953125 C91.9921875 0.5253125 91.9921875 0.8553125 91.9921875 1.1953125 C91.30181396 1.22036865 90.61144043 1.2454248 89.90014648 1.27124023 C86.74317341 1.3879691 83.58644293 1.51034428 80.4296875 1.6328125 C79.34365234 1.67212891 78.25761719 1.71144531 77.13867188 1.75195312 C71.68808004 1.96732605 66.37143309 2.27690472 60.9921875 3.1953125 C60.9921875 3.5253125 60.9921875 3.8553125 60.9921875 4.1953125 C60.05119202 4.20078094 60.05119202 4.20078094 59.09118652 4.20635986 C29.27120479 4.39585676 -0.44260257 4.95973336 -30.1953125 7.0703125 C-31.38995117 7.15140259 -32.58458984 7.23249268 -33.81542969 7.31604004 C-37.20765624 7.5501769 -40.59795538 7.80241469 -43.98828125 8.0625 C-45.47046394 8.1657811 -45.47046394 8.1657811 -46.98258972 8.27114868 C-52.39834403 8.71800676 -57.13761768 9.66193302 -62.2311554 11.57888794 C-64.0078125 12.1953125 -64.0078125 12.1953125 -66.0078125 12.1953125 C-66.0078125 12.8553125 -66.0078125 13.5153125 -66.0078125 14.1953125 C-69.0547754 15.88965168 -71.83602716 16.68998362 -75.2578125 17.3203125 C-76.14984375 17.48789062 -77.041875 17.65546875 -77.9609375 17.828125 C-78.63640625 17.94929688 -79.311875 18.07046875 -80.0078125 18.1953125 C-80.0078125 18.8553125 -80.0078125 19.5153125 -80.0078125 20.1953125 C-82.9778125 20.6903125 -82.9778125 20.6903125 -86.0078125 21.1953125 C-86.0490625 21.9378125 -86.0903125 22.6803125 -86.1328125 23.4453125 C-87.36454202 27.31646243 -89.62489816 28.02514104 -93.0078125 30.1953125 C-94.67164763 31.968765 -96.19621272 33.80548159 -97.7109375 35.70703125 C-99.0078125 37.1953125 -99.0078125 37.1953125 -101.0078125 38.1953125 C-102.04570831 39.83864754 -103.04349174 41.50775117 -104.0078125 43.1953125 C-104.6678125 44.1853125 -105.3278125 45.1753125 -106.0078125 46.1953125 C-106.9978125 46.1953125 -107.9878125 46.1953125 -109.0078125 46.1953125 C-109.11222656 46.74703125 -109.21664062 47.29875 -109.32421875 47.8671875 C-110.15341634 50.69119759 -111.435809 52.92086166 -112.9453125 55.4453125 C-113.73228516 56.78335938 -113.73228516 56.78335938 -114.53515625 58.1484375 C-115.02113281 58.82390625 -115.50710937 59.499375 -116.0078125 60.1953125 C-116.6678125 60.1953125 -117.3278125 60.1953125 -118.0078125 60.1953125 C-118.1315625 61.2471875 -118.2553125 62.2990625 -118.3828125 63.3828125 C-119.0078125 67.1953125 -119.0078125 67.1953125 -119.94921875 69.359375 C-121.4150467 73.2862794 -121.94691166 77.24989581 -122.5703125 81.3828125 C-122.81869437 83.00175281 -123.06986449 84.62026853 -123.32421875 86.23828125 C-123.48579468 87.30598755 -123.48579468 87.30598755 -123.65063477 88.39526367 C-124.0078125 90.1953125 -124.0078125 90.1953125 -125.0078125 92.1953125 C-127.86531197 113.00593065 -127.41817368 134.39301942 -127.60870361 155.35284424 C-127.64954106 159.63829495 -127.70025778 163.92362942 -127.75 168.20898438 C-127.84529089 176.53767932 -127.9301366 184.86643467 -128.0078125 193.1953125 C-128.6678125 193.1953125 -129.3278125 193.1953125 -130.0078125 193.1953125 C-130.3378125 203.4253125 -130.6678125 213.6553125 -131.0078125 224.1953125 C-131.3378125 224.1953125 -131.6678125 224.1953125 -132.0078125 224.1953125 C-132.07844669 208.96379282 -132.13106333 193.73228075 -132.16324902 178.50063324 C-132.17860234 171.42549609 -132.19946566 164.35046171 -132.23413086 157.27539062 C-132.26439239 151.09605659 -132.28347081 144.91679709 -132.29007798 138.737391 C-132.29392937 135.47693712 -132.30439812 132.21674133 -132.32500267 128.9563446 C-132.55583335 90.86294073 -128.58985566 57.7309908 -101.7109375 28.83203125 C-88.64223252 16.08437827 -72.98903651 8.0855071 -55.3203125 4.0078125 C-54.66353516 3.85296387 -54.00675781 3.69811523 -53.33007812 3.53857422 C-35.72168537 -0.25292366 -17.91517655 -0.0745363 0 0 Z " fill="#86CAE6" transform="translate(132.0078125,-0.1953125)"/>
<path d="M0 0 C0 0.66 0 1.32 0 2 C-11.02688145 4.38677088 -22.08964898 5.45110869 -33.34375 6.09375 C-34.45501975 6.15832712 -34.45501975 6.15832712 -35.5887394 6.22420883 C-55.62593674 7.35455938 -75.67160658 7.2303463 -95.7331543 7.1373291 C-100.74981922 7.11639351 -105.76650657 7.10763645 -110.78320312 7.09765625 C-120.52219118 7.07658601 -130.26108446 7.04273048 -140 7 C-140 7.66 -140 8.32 -140 9 C-126.8 9 -113.6 9 -100 9 C-100 9.99 -100 10.98 -100 12 C-137.95 12 -175.9 12 -215 12 C-215.33 11.01 -215.66 10.02 -216 9 C-216.99 8.34 -217.98 7.68 -219 7 C-214.11759155 6.20287209 -209.44835917 5.95547033 -204.5 6 C-197.36465421 6.05065661 -190.2547283 5.84499071 -183.125 5.5625 C-181.50948242 5.50352539 -181.50948242 5.50352539 -179.86132812 5.44335938 C-178.85779297 5.40146484 -177.85425781 5.35957031 -176.8203125 5.31640625 C-175.91555176 5.27974854 -175.01079102 5.24309082 -174.07861328 5.20532227 C-172.01159841 5.22298957 -172.01159841 5.22298957 -171 4 C-169.35568154 3.91588194 -167.7076883 3.90370854 -166.0612793 3.91772461 C-164.95218704 3.92324844 -163.84309479 3.92877228 -162.70039368 3.9344635 C-160.81262459 3.94950172 -160.81262459 3.94950172 -158.88671875 3.96484375 C-156.03304823 3.97788037 -153.17937597 3.98526867 -150.32568359 3.99169922 C-149.13738496 3.99468883 -149.13738496 3.99468883 -147.9250803 3.99773884 C-129.34274151 4.03020441 -110.75933517 3.79530958 -92.17797852 3.62768555 C-85.9932662 3.57217025 -79.80852146 3.52215099 -73.62375355 3.47328281 C-68.80483704 3.43422698 -63.98596199 3.39118175 -59.16708946 3.34705925 C-56.88553819 3.32684676 -54.60397338 3.30810219 -52.32239723 3.29092598 C-37.7725134 3.17969766 -23.6152389 2.66814682 -9.2265625 0.40234375 C-6.11167761 0.0139259 -3.13498097 -0.07103431 0 0 Z " fill="#25A8DF" transform="translate(324,388)"/>
<path d="M0 0 C14.19 0 28.38 0 43 0 C43 41.91 43 83.82 43 127 C28.81 127 14.62 127 0 127 C0 85.09 0 43.18 0 0 Z M2 3 C2 43.26 2 83.52 2 125 C14.54 125 27.08 125 40 125 C40 84.74 40 44.48 40 3 C27.46 3 14.92 3 2 3 Z " fill="#DAF7FC" transform="translate(45,148)"/>
<path d="M0 0 C0.02548786 7.22248577 0.04292452 14.44495981 0.05493164 21.66748047 C0.05994067 24.12126092 0.06674977 26.57503842 0.07543945 29.02880859 C0.08765586 32.56869234 0.09326276 36.10853641 0.09765625 39.6484375 C0.10281754 40.73426117 0.10797882 41.82008484 0.11329651 42.93881226 C0.11429651 56.71227778 0.11429651 56.71227778 -1 62 C-1.66 62.66 -2.32 63.32 -3 64 C-3.31695065 66.20604625 -3.31695065 66.20604625 -3.28710938 68.78173828 C-3.30052368 69.77682404 -3.31393799 70.77190979 -3.32775879 71.79714966 C-3.33303589 72.8772934 -3.33831299 73.95743713 -3.34375 75.0703125 C-3.3583728 76.18050751 -3.37299561 77.29070251 -3.38806152 78.43453979 C-3.434692 81.99798961 -3.46879075 85.56138372 -3.5 89.125 C-3.54126098 93.79447351 -3.59506588 98.46356236 -3.65625 103.1328125 C-3.6615271 104.20081085 -3.6668042 105.2688092 -3.67224121 106.36917114 C-3.75047285 112.28276689 -4.40373162 117.31329388 -6 123 C-6.31682621 125.55368551 -6.31682621 125.55368551 -6.34375 127.8671875 C-6.37339844 128.68960938 -6.40304687 129.51203125 -6.43359375 130.359375 C-6.47848285 132.05987963 -6.52273689 133.76040111 -6.56640625 135.4609375 C-6.59605469 136.275625 -6.62570312 137.0903125 -6.65625 137.9296875 C-6.67494141 138.66429199 -6.69363281 139.39889648 -6.71289062 140.15576172 C-7 142 -7 142 -9 144 C-9.67651207 146.19704511 -9.67651207 146.19704511 -10.125 148.625 C-10.29257812 149.44226563 -10.46015625 150.25953125 -10.6328125 151.1015625 C-10.75398438 151.72804688 -10.87515625 152.35453125 -11 153 C-11.33 153 -11.66 153 -12 153 C-12.02698189 151.37509046 -12.04638757 149.75005367 -12.0625 148.125 C-12.07410156 147.22007812 -12.08570313 146.31515625 -12.09765625 145.3828125 C-12 143 -12 143 -11 141 C-10.68286275 137.36613567 -10.48828964 133.73152308 -10.28125 130.08984375 C-10 127 -10 127 -9 126 C-8.75941507 122.89146193 -8.59113822 119.80562208 -8.46875 116.69140625 C-8.40645203 115.17807457 -8.40645203 115.17807457 -8.34289551 113.63417053 C-7.72652015 97.28045041 -7.65229127 80.90942175 -7.47393799 64.54644775 C-7.4138016 59.06086001 -7.3503262 53.57532661 -7.28125 48.08984375 C-7.27186401 47.33951244 -7.26247803 46.58918114 -7.25280762 45.81611252 C-7.09305639 33.53007788 -6.6953913 21.26808662 -6 9 C-5.34 9 -4.68 9 -4 9 C-4 6.36 -4 3.72 -4 1 C-2 0 -2 0 0 0 Z " fill="#3CB3E5" transform="translate(400,175)"/>
<path d="M0 0 C4.00359552 0.01043006 8.00719789 0.01483872 12.01080322 0.01983643 C19.79597744 0.03040079 27.58111894 0.04735165 35.36627197 0.06866455 C35.36627197 0.39866455 35.36627197 0.72866455 35.36627197 1.06866455 C29.75627197 1.06866455 24.14627197 1.06866455 18.36627197 1.06866455 C18.36627197 2.05866455 18.36627197 3.04866455 18.36627197 4.06866455 C5.15878013 4.78967775 -8.03459164 5.30045942 -21.25872803 5.56866455 C-22.65058319 5.5985144 -22.65058319 5.5985144 -24.07055664 5.62896729 C-38.12716037 5.92929335 -52.18454745 6.13848253 -66.24310303 6.31866455 C-67.45916544 6.33438255 -67.45916544 6.33438255 -68.69979477 6.35041809 C-76.86388856 6.45584092 -85.02799153 6.55848377 -93.19225883 6.64957523 C-108.11769901 6.81794297 -123.02359391 7.0384869 -137.93618774 7.73173523 C-145.00946845 8.05947586 -152.05176604 8.19405083 -159.13372803 8.13116455 C-160.6883374 8.12439697 -160.6883374 8.12439697 -162.27435303 8.11749268 C-164.72755336 8.10613527 -167.18059844 8.09002755 -169.63372803 8.06866455 C-169.63372803 7.73866455 -169.63372803 7.40866455 -169.63372803 7.06866455 C-135.29705445 4.29300797 -101.07151401 3.39101987 -66.63372803 3.06866455 C-66.63372803 2.73866455 -66.63372803 2.40866455 -66.63372803 2.06866455 C-44.55933933 -0.59418439 -22.19758042 -0.06417992 0 0 Z " fill="#3BB3E4" transform="translate(257.63372802734375,-0.06866455078125)"/>
<path d="M0 0 C-0.94483796 2.35722461 -1.53130764 3.71836423 -3.7421875 5.046875 C-10.21588424 7.18106074 -16.22098627 7.30970113 -23 7 C-23 6.34 -23 5.68 -23 5 C-23.77511429 5.02283554 -24.55022858 5.04567108 -25.34883118 5.06919861 C-35.66971619 5.37119002 -45.99096963 5.65849785 -56.3125 5.9375 C-57.16264805 5.96054577 -58.0127961 5.98359154 -58.88870621 6.00733566 C-92.48752483 6.91371115 -126.08445424 7.37120336 -159.6940918 7.63459015 C-163.48892736 7.66485485 -167.28373333 7.69817929 -171.0785408 7.73176193 C-173.67632169 7.75320147 -176.2740979 7.76942752 -178.87191772 7.78530884 C-186.2091748 7.84216073 -193.48659038 7.96721962 -200.78823853 8.78036499 C-204.42029186 9.14103954 -208.04152526 9.1080309 -211.6875 9.0625 C-212.40099609 9.05798828 -213.11449219 9.05347656 -213.84960938 9.04882812 C-215.56644474 9.03730574 -217.28323543 9.0193863 -219 9 C-219 9.66 -219 10.32 -219 11 C-224.08086796 11.84681133 -228.84828377 12.09038099 -234 12 C-234 12.66 -234 13.32 -234 14 C-236.31 14.33 -238.62 14.66 -241 15 C-239.68 14.34 -238.36 13.68 -237 13 C-237 12.34 -237 11.68 -237 11 C-224.10020797 7.65854658 -211.79773418 6.22196435 -198.5 5.8125 C-196.4636903 5.7380971 -194.42739522 5.66329338 -192.39111328 5.58813477 C-165.75053659 4.66369479 -139.08421152 4.49129249 -112.43095779 4.19258499 C-96.73480569 4.01502337 -81.04322391 3.70176226 -65.35107422 3.30444336 C-53.89841442 3.02077127 -42.45606478 2.95218417 -31 3 C-31 2.01 -31 1.02 -31 0 C-20.51052868 -0.82544266 -10.49411854 -1.08101063 0 0 Z " fill="#29AAE2" transform="translate(307,1)"/>
<path d="M0 0 C0.33 0 0.66 0 1 0 C1.02344586 16.95159951 1.04103625 33.90319389 1.05181217 50.85480595 C1.05695043 58.72718412 1.06394561 66.59955216 1.07543945 74.47192383 C1.08546223 81.34005679 1.09187135 88.20818242 1.09408849 95.0763225 C1.09538281 98.70695336 1.09838642 102.33756325 1.10573006 105.96818733 C1.11389546 110.0387779 1.1139863 114.10933289 1.11352539 118.17993164 C1.11712067 119.36029999 1.12071594 120.54066833 1.12442017 121.75680542 C1.11546792 129.12410718 0.74417823 136.38066196 0.11710262 143.71633053 C0.01016976 146.71483015 0.36568244 149.09311814 1 152 C0.67 152.33 0.34 152.66 0 153 C-0.06349775 155.18659721 -0.05913241 157.375212 -0.02734375 159.5625 C-0.01467679 160.93098687 -0.00231742 162.2994766 0.00976562 163.66796875 C0.03438767 165.82251988 0.06213781 167.97692041 0.09594727 170.13134766 C0.21189693 178.01044681 0.17268834 185.3657696 -2 193 C-2.66 193 -3.32 193 -4 193 C-4 195.64 -4 198.28 -4 201 C-4.33 201 -4.66 201 -5 201 C-7.15975411 186.86342766 -6.91800731 173.24906994 -6 159 C-5.34 159 -4.68 159 -4 159 C-4 149.76 -4 140.52 -4 131 C-3.34 131 -2.68 131 -2 131 C-2.00523682 130.43065735 -2.01047363 129.8613147 -2.01586914 129.27471924 C-2.20907532 103.95431619 -1.59065919 78.64401295 -1.07287598 53.33050537 C-0.95018285 47.30240898 -0.83071196 41.27424872 -0.7109375 35.24609375 C-0.47704053 23.49733265 -0.23967782 11.7486445 0 0 Z " fill="#29AAE1" transform="translate(7,113)"/>
<path d="M0 0 C3.63 0 7.26 0 11 0 C11 48.51 11 97.02 11 147 C7.37 147 3.74 147 0 147 C0 124.89 0 102.78 0 80 C0.33 80 0.66 80 1 80 C1.33 101.12 1.66 122.24 2 144 C4.31 144.33 6.62 144.66 9 145 C9 97.48 9 49.96 9 1 C6.69 1 4.38 1 2 1 C2.00444122 1.78038635 2.00888245 2.56077271 2.01345825 3.36480713 C2.05354353 10.72162594 2.08398873 18.07839174 2.10362434 25.43529129 C2.11405858 29.21748771 2.12821116 32.99959383 2.15087891 36.78173828 C2.17262021 40.43217608 2.18457134 44.08252705 2.18975449 47.7330246 C2.19344794 49.12527584 2.20066034 50.51752238 2.21146011 51.90973663 C2.22599126 53.86067567 2.22681706 55.81170218 2.22705078 57.76269531 C2.231492 58.8730011 2.23593323 59.98330688 2.24050903 61.1272583 C2 64 2 64 0 68 C0 45.56 0 23.12 0 0 Z " fill="#DAFDFE" transform="translate(230,128)"/>
<path d="M0 0 C0.66 0.33 1.32 0.66 2 1 C0.6078125 2.0828125 0.6078125 2.0828125 -0.8125 3.1875 C-3.60066772 5.50331931 -5.29977545 7.76957336 -7 11 C-7.99 12.485 -7.99 12.485 -9 14 C-9.99 14 -10.98 14 -12 14 C-12.10441406 14.55171875 -12.20882813 15.1034375 -12.31640625 15.671875 C-13.14560384 18.49588509 -14.4279965 20.72554916 -15.9375 23.25 C-16.46214844 24.14203125 -16.98679687 25.0340625 -17.52734375 25.953125 C-18.01332031 26.62859375 -18.49929687 27.3040625 -19 28 C-19.66 28 -20.32 28 -21 28 C-21.12375 29.051875 -21.2475 30.10375 -21.375 31.1875 C-22 35 -22 35 -22.94140625 37.1640625 C-24.4072342 41.0909669 -24.93909916 45.05458331 -25.5625 49.1875 C-25.81088187 50.80644031 -26.06205199 52.42495603 -26.31640625 54.04296875 C-26.42412354 54.75477295 -26.53184082 55.46657715 -26.64282227 56.19995117 C-27 58 -27 58 -28 60 C-30.85749947 80.81061815 -30.41036118 102.19770692 -30.60089111 123.15753174 C-30.64172856 127.44298245 -30.69244528 131.72831692 -30.7421875 136.01367188 C-30.83747839 144.34236682 -30.9223241 152.67112217 -31 161 C-31.66 161 -32.32 161 -33 161 C-33.33 171.23 -33.66 181.46 -34 192 C-34.33 192 -34.66 192 -35 192 C-35.2264939 162.78947741 -35.11783705 133.63200806 -34.125 104.4375 C-34.08570374 103.2135553 -34.04640747 101.9896106 -34.00592041 100.72857666 C-33.58982549 88.03115659 -33.03374068 75.55527831 -31 63 C-30.78333124 61.41874349 -30.57151167 59.83680522 -30.3671875 58.25390625 C-29.91145833 54.8359375 -29.45572917 51.41796875 -29 48 C-28.34 48 -27.68 48 -27 48 C-27.03480469 47.18015625 -27.06960937 46.3603125 -27.10546875 45.515625 C-27.13253906 44.43796875 -27.15960937 43.3603125 -27.1875 42.25 C-27.22230469 41.18265625 -27.25710937 40.1153125 -27.29296875 39.015625 C-26.96263216 35.61536036 -26.10872866 34.58211673 -24 32 C-23.43672257 29.88181743 -23.43672257 29.88181743 -23.3125 27.75 C-23.209375 26.5125 -23.10625 25.275 -23 24 C-21.68 24 -20.36 24 -19 24 C-18.896875 23.278125 -18.79375 22.55625 -18.6875 21.8125 C-17.5642625 17.21743751 -15.93931026 14.62620684 -12 12 C-10.98133771 10.34467377 -9.98189187 8.67739862 -9 7 C-6.71725202 4.30220694 -4.04297749 2.76172381 -1 1 C-0.67 0.67 -0.34 0.34 0 0 Z " fill="#6CC9F0" transform="translate(35,32)"/>
<path d="M0 0 C0.66 0.33 1.32 0.66 2 1 C2 22.78 2 44.56 2 67 C0.02 67.495 0.02 67.495 -2 68 C-2 70.64 -2 73.28 -2 76 C-2.66 76 -3.32 76 -4 76 C-3.99419922 77.1545166 -3.98839844 78.3090332 -3.98242188 79.49853516 C-3.9240819 97.29738921 -4.20144977 115.09076512 -4.46356201 132.88708496 C-4.52504264 137.08486299 -4.58469958 141.28266695 -4.64453125 145.48046875 C-4.76128284 153.65367157 -4.87998388 161.82684447 -5 170 C-5.33 170 -5.66 170 -6 170 C-6 136.34 -6 102.68 -6 68 C-4.515 67.505 -4.515 67.505 -3 67 C-3 59.74 -3 52.48 -3 45 C-3.66 47.31 -4.32 49.62 -5 52 C-5.33 52 -5.66 52 -6 52 C-6.04241723 49.66705225 -6.04092937 47.33297433 -6 45 C-5.505 44.505 -5.505 44.505 -5 44 C-4.8670122 42.39011809 -4.79666237 40.77495575 -4.75390625 39.16015625 C-4.72103516 38.17982422 -4.68816406 37.19949219 -4.65429688 36.18945312 C-4.5932168 34.10883172 -4.53591031 32.02809603 -4.48242188 29.94726562 C-4.44826172 28.96564453 -4.41410156 27.98402344 -4.37890625 26.97265625 C-4.3538501 26.06781494 -4.32879395 25.16297363 -4.30297852 24.23071289 C-4 22 -4 22 -2 20 C-1.64733361 17.98520907 -1.64733361 17.98520907 -1.62109375 15.68359375 C-1.58693359 14.83732422 -1.55277344 13.99105469 -1.51757812 13.11914062 C-1.49115234 12.23419922 -1.46472656 11.34925781 -1.4375 10.4375 C-1.37780601 8.68605308 -1.31421588 6.93473311 -1.24609375 5.18359375 C-1.22216553 4.40556396 -1.1982373 3.62753418 -1.17358398 2.82592773 C-1 1 -1 1 0 0 Z " fill="#1CA3DD" transform="translate(398,108)"/>
<path d="M0 0 C50.82 0 101.64 0 154 0 C154 3.63 154 7.26 154 11 C130.24 11 106.48 11 82 11 C82 10.01 82 9.02 82 8 C105.1 8.33 128.2 8.66 152 9 C152 6.36 152 3.72 152 1 C102.17 1 52.34 1 1 1 C1.33 3.31 1.66 5.62 2 8 C24.77 8.33 47.54 8.66 71 9 C71 9.66 71 10.32 71 11 C47.57 11 24.14 11 0 11 C0 7.37 0 3.74 0 0 Z " fill="#D8F9FE" transform="translate(25,128)"/>
<path d="M0 0 C0.80991898 0.00359528 1.61983795 0.00719055 2.45429993 0.01089478 C3.30300659 0.01074875 4.15171326 0.01060272 5.02613831 0.01045227 C7.84523532 0.01115168 10.66426712 0.01894539 13.48335266 0.02676392 C15.43248458 0.028628 17.38161696 0.03005195 19.33074951 0.03105164 C24.47151473 0.03487761 29.61225188 0.04470858 34.75300598 0.05575562 C39.99449789 0.06596802 45.23599431 0.07054889 50.47749329 0.07559204 C60.76982335 0.08633078 71.06213255 0.10340815 81.35444641 0.12442017 C81.35444641 0.45442017 81.35444641 0.78442017 81.35444641 1.12442017 C57.3462241 1.93069844 33.3758006 2.26387962 9.35444641 2.12442017 C9.35444641 2.78442017 9.35444641 3.44442017 9.35444641 4.12442017 C8.40569641 4.22754517 7.45694641 4.33067017 6.47944641 4.43692017 C3.0633714 4.80981311 3.0633714 4.80981311 1.35444641 8.12442017 C-0.82221985 8.48518372 -0.82221985 8.48518372 -3.554245 8.46499634 C-5.08560593 8.46465645 -5.08560593 8.46465645 -6.64790344 8.46430969 C-7.75314362 8.44882584 -8.85838379 8.43334198 -9.99711609 8.41738892 C-11.12628448 8.41314407 -12.25545288 8.40889923 -13.4188385 8.40452576 C-17.03631631 8.38769148 -20.65324328 8.35002992 -24.27055359 8.31192017 C-26.71846223 8.2968795 -29.16637957 8.28319003 -31.61430359 8.27090454 C-37.62490918 8.23777244 -43.63519204 8.18752596 -49.64555359 8.12442017 C-49.97555359 7.13442017 -50.30555359 6.14442017 -50.64555359 5.12442017 C-51.63555359 4.46442017 -52.62555359 3.80442017 -53.64555359 3.12442017 C-48.76314514 2.32729226 -44.09391276 2.0798905 -39.14555359 2.12442017 C-32.0102078 2.17507678 -24.90028188 1.96941088 -17.77055359 1.68692017 C-16.15503601 1.62794556 -16.15503601 1.62794556 -14.50688171 1.56777954 C-13.00157898 1.50493774 -13.00157898 1.50493774 -11.46586609 1.44082642 C-10.56110535 1.4041687 -9.6563446 1.36751099 -8.72416687 1.32974243 C-5.70001575 1.03102137 -3.3997755 0.00637239 0 0 Z " fill="#1DA5DF" transform="translate(158.6455535888672,391.8755798339844)"/>
<path d="M0 0 C0.33 0 0.66 0 1 0 C1.07048275 8.58195427 1.12329712 17.16378142 1.15543652 25.74595642 C1.17088601 29.73390144 1.1917283 33.72164408 1.22631836 37.70947266 C1.52255468 72.82244938 1.37215534 110.14384747 -23.6171875 137.7890625 C-24.71032585 138.89455269 -25.84799523 139.95599568 -27 141 C-26.67 138.69 -26.34 136.38 -26 134 C-24.35 133.67 -22.7 133.34 -21 133 C-21 131.02 -21 129.04 -21 127 C-20.34 127 -19.68 127 -19 127 C-19 125.02 -19 123.04 -19 121 C-18.38125 120.814375 -17.7625 120.62875 -17.125 120.4375 C-14.47273449 118.64332039 -14.32337851 117.14312219 -13.6328125 114.1171875 C-12.87282443 111.57451137 -11.70705315 109.45372321 -10.4375 107.125 C-7.92759386 102.31188588 -7.2611785 98.39768891 -7 93 C-6.34 93 -5.68 93 -5 93 C-5 90.36 -5 87.72 -5 85 C-4.34 85 -3.68 85 -3 85 C-3.00507568 83.87674316 -3.01015137 82.75348633 -3.01538086 81.59619141 C-3.05643613 68.04651369 -2.8788013 54.50421274 -2.62768555 40.95703125 C-2.56145863 37.31777524 -2.50239603 33.67844144 -2.44335938 30.0390625 C-2.40147751 27.72134625 -2.35917616 25.40363753 -2.31640625 23.0859375 C-2.29969376 21.99969086 -2.28298126 20.91344421 -2.26576233 19.79428101 C-2.24581711 18.79788605 -2.22587189 17.80149109 -2.20532227 16.77490234 C-2.18977798 15.89812836 -2.1742337 15.02135437 -2.15821838 14.11801147 C-2 12 -2 12 -1 10 C-0.77377919 8.29636178 -0.59111527 6.58671299 -0.4375 4.875 C-0.35371094 3.96492187 -0.26992188 3.05484375 -0.18359375 2.1171875 C-0.09271484 1.06917969 -0.09271484 1.06917969 0 0 Z " fill="#63BAE0" transform="translate(399,227)"/>
<path d="M0 0 C0 0.33 0 0.66 0 1 C-0.69037354 1.02505615 -1.38074707 1.0501123 -2.09204102 1.07592773 C-5.24901409 1.1926566 -8.40574457 1.31503178 -11.5625 1.4375 C-12.64853516 1.47681641 -13.73457031 1.51613281 -14.85351562 1.55664062 C-20.30410746 1.77201355 -25.62075441 2.08159222 -31 3 C-31 3.33 -31 3.66 -31 4 C-31.69172806 4.00808685 -32.38345612 4.01617371 -33.09614563 4.02450562 C-39.7542758 4.10385543 -46.41224539 4.19150791 -53.07015705 4.28752708 C-56.4895237 4.33657341 -59.908872 4.3828733 -63.32836914 4.421875 C-78.62305984 4.6024432 -93.82720224 5.00856293 -109.07246399 6.30941772 C-118.06593222 7.07404296 -126.98073011 7.21221812 -136 7 C-135.67 6.34 -135.34 5.68 -135 5 C-130.52676403 3.97475169 -126.02196796 3.75336611 -121.44921875 3.5 C-120.01497014 3.41673244 -118.58072546 3.33339718 -117.14648438 3.25 C-114.90364491 3.12348972 -112.66073044 2.99852576 -110.41772461 2.875 C-108.24047819 2.75392363 -106.06361152 2.62725328 -103.88671875 2.5 C-101.94091919 2.39171875 -101.94091919 2.39171875 -99.95581055 2.28125 C-97.11527654 2.32759239 -97.11527654 2.32759239 -96 1 C-91.99654866 0.59614938 -87.95783404 0.56192188 -83.9375 0.4375 C-83.28547607 0.41632111 -82.63345215 0.39514221 -81.96166992 0.37332153 C-54.66337208 -0.47904434 -27.3081521 -0.08298577 0 0 Z " fill="#6ABCE2" transform="translate(224,0)"/>
<path d="M0 0 C0.33 0 0.66 0 1 0 C1.02343688 8.3902972 1.04107151 16.78058014 1.05181217 25.17090225 C1.05697381 29.0691877 1.06394501 32.96745033 1.07543945 36.86572266 C1.12353641 53.60178746 1.14735541 70.29284946 0 87 C-0.66 87 -1.32 87 -2 87 C-2 89.64 -2 92.28 -2 95 C-2.66 95 -3.32 95 -4 95 C-3.896875 96.27875 -3.79375 97.5575 -3.6875 98.875 C-3.67170949 103.90427691 -5.29163085 107.22722961 -7.703125 111.5625 C-8.93244942 113.87303747 -9.76363392 116.07713887 -10.5625 118.5625 C-11.036875 119.696875 -11.51125 120.83125 -12 122 C-14.08984375 122.71484375 -14.08984375 122.71484375 -16 123 C-16 124.98 -16 126.96 -16 129 C-16.66 129 -17.32 129 -18 129 C-18 129.66 -18 130.32 -18 131 C-19.65 131 -21.3 131 -23 131 C-22.34 129.35 -21.68 127.7 -21 126 C-20.34 126 -19.68 126 -19 126 C-18.7525 125.01 -18.505 124.02 -18.25 123 C-17.02356992 118.70749472 -15.06948028 114.93796787 -13 111 C-12.24692781 109.50154003 -11.49682036 108.00158561 -10.75 106.5 C-9.88375 104.7675 -9.88375 104.7675 -9 103 C-8.34 103 -7.68 103 -7 103 C-6.95101563 102.37351562 -6.90203125 101.74703125 -6.8515625 101.1015625 C-6.77679688 100.28429687 -6.70203125 99.46703125 -6.625 98.625 C-6.55539062 97.81289063 -6.48578125 97.00078125 -6.4140625 96.1640625 C-6 94 -6 94 -4 92 C-3.66371323 90.10002136 -3.66371323 90.10002136 -3.65625 87.9296875 C-3.62660156 87.115 -3.59695313 86.3003125 -3.56640625 85.4609375 C-3.54449219 84.60757813 -3.52257812 83.75421875 -3.5 82.875 C-3.45592931 81.20549841 -3.40391768 79.53618649 -3.34375 77.8671875 C-3.32505859 77.12581543 -3.30636719 76.38444336 -3.28710938 75.62060547 C-3 73 -3 73 -2.00439453 69.63330078 C-0.3393685 63.21965633 -0.6400741 56.58238442 -0.5859375 50 C-0.5671994 48.55410693 -0.54762407 47.10822449 -0.5272522 45.66235352 C-0.47620363 41.88135076 -0.43643317 38.10031265 -0.39910889 34.31915283 C-0.3588969 30.45096286 -0.30788355 26.58291644 -0.2578125 22.71484375 C-0.16137679 15.14332811 -0.07686999 7.57174226 0 0 Z " fill="#4FBCEB" transform="translate(396,225)"/>
<path d="M0 0 C0.99 0.33 1.98 0.66 3 1 C-4.4194202 8.25586585 -11.90885048 13.89338453 -21 19 C-21.79664063 19.47179687 -22.59328125 19.94359375 -23.4140625 20.4296875 C-51.0750784 35.73354853 -86.62338853 32.39531762 -117 32 C-117 31.67 -117 31.34 -117 31 C-115.83428467 30.97494385 -114.66856934 30.9498877 -113.4675293 30.92407227 C-109.14563869 30.82995309 -104.8239071 30.72974331 -100.50219727 30.62768555 C-98.63114134 30.58435378 -96.76004631 30.54267743 -94.88891602 30.50268555 C-92.20056369 30.44494051 -89.51240785 30.38125819 -86.82421875 30.31640625 C-85.56782845 30.29133751 -85.56782845 30.29133751 -84.28605652 30.26576233 C-80.96326712 30.18085939 -78.17247982 30.05749327 -75 29 C-73.59175107 28.91978001 -72.18002769 28.89234023 -70.76953125 28.90234375 C-69.56586914 28.90717773 -69.56586914 28.90717773 -68.33789062 28.91210938 C-67.50451172 28.92048828 -66.67113281 28.92886719 -65.8125 28.9375 C-64.96751953 28.94201172 -64.12253906 28.94652344 -63.25195312 28.95117188 C-61.16793845 28.96294597 -59.08396023 28.9808811 -57 29 C-57 28.34 -57 27.68 -57 27 C-56.32195312 26.90203125 -55.64390625 26.8040625 -54.9453125 26.703125 C-49.09757709 25.76359964 -43.99424097 24.36016463 -38.56640625 22.0078125 C-34.8556082 20.55060413 -31.03577498 19.68549758 -27.15234375 18.80859375 C-26.44207031 18.54175781 -25.73179687 18.27492188 -25 18 C-24.505 16.515 -24.505 16.515 -24 15 C-20.78715662 13.11420063 -18.75366417 12 -15 12 C-15 11.34 -15 10.68 -15 10 C-13.02 10 -11.04 10 -9 10 C-8.773125 9.401875 -8.54625 8.80375 -8.3125 8.1875 C-6.65685748 5.4280958 -4.75894293 4.58639218 -2 3 C-1.34 2.01 -0.68 1.02 0 0 Z " fill="#63B9E1" transform="translate(369,368)"/>
<path d="M0 0 C0 0.33 0 0.66 0 1 C-10.29043434 2.76362674 -20.29856413 3.31985659 -30.7109375 3.37890625 C-32.29254097 3.39516003 -33.87413508 3.41234755 -35.45571899 3.43040466 C-39.59242272 3.47566501 -43.72914137 3.51063854 -47.8659668 3.54260254 C-55.23106875 3.60101023 -62.59601321 3.67664136 -69.9609375 3.75390625 C-70.75096413 3.76181875 -71.54099075 3.76973125 -72.35495758 3.77788353 C-83.95796267 3.89730982 -95.53199765 4.24106499 -107.12353516 4.78833008 C-113.25165722 5.07210093 -119.36536695 5.1169742 -125.5 5.0625 C-127.05460937 5.05573242 -127.05460937 5.05573242 -128.640625 5.04882812 C-131.09382533 5.03747072 -133.54687041 5.021363 -136 5 C-136 4.67 -136 4.34 -136 4 C-90.75010904 0.30563486 -45.38712961 -0.38037177 0 0 Z " fill="#46BBEC" transform="translate(224,3)"/>
<path d="M0 0 C2.97 0.495 2.97 0.495 6 1 C6 1.66 6 2.32 6 3 C6.66 3 7.32 3 8 3 C7.67 5.64 7.34 8.28 7 11 C7.66 11 8.32 11 9 11 C9.33 12.98 9.66 14.96 10 17 C11.98 17 13.96 17 16 17 C16.33 18.32 16.66 19.64 17 21 C16.01 21 15.02 21 14 21 C14 21.99 14 22.98 14 24 C15.32 24 16.64 24 18 24 C18.33 24.66 18.66 25.32 19 26 C19.99 26.33 20.98 26.66 22 27 C22 27.66 22 28.32 22 29 C23.32 29.33 24.64 29.66 26 30 C25.67 30.99 25.34 31.98 25 33 C26.485 33.495 26.485 33.495 28 34 C28.33 34.99 28.66 35.98 29 37 C29.66 37 30.32 37 31 37 C34 40.46153846 34 40.46153846 34 43 C35.32 43 36.64 43 38 43 C38.495 45.475 38.495 45.475 39 48 C34.56559352 46.54099011 31.31385335 44.12346879 27.8125 41.125 C27.24442627 40.6388623 26.67635254 40.15272461 26.09106445 39.65185547 C14.77978813 29.72333307 5.44889456 17.08047677 0 3 C0 2.01 0 1.02 0 0 Z " fill="#1D9ED2" transform="translate(8,335)"/>
<path d="M0 0 C0.33 0 0.66 0 1 0 C1 31.02 1 62.04 1 94 C0.34 94 -0.32 94 -1 94 C-1 99.28 -1 104.56 -1 110 C-1.33 110 -1.66 110 -2 110 C-2.0236591 102.1908347 -2.04117729 94.38167852 -2.05181217 86.57248592 C-2.05692831 82.94243501 -2.06380707 79.31240939 -2.07543945 75.68237305 C-2.12357009 60.21944284 -2.05791701 44.77250203 -1.55859375 29.31640625 C-1.51960464 28.09485336 -1.48061554 26.87330048 -1.44044495 25.61473083 C-1.13729838 17.06143917 -0.61181991 8.53589349 0 0 Z " fill="#54B2DB" transform="translate(2,178)"/>
<path d="M0 0 C14.52 0 29.04 0 44 0 C44 0.33 44 0.66 44 1 C29.81 1 15.62 1 1 1 C1 49.84 1 98.68 1 149 C0.01 149 -0.98 149 -2 149 C-2 143.06 -2 137.12 -2 131 C-1.34 131 -0.68 131 0 131 C-0.10722625 115.03182879 -0.21998536 99.06370775 -0.33933926 83.09562302 C-0.39462763 75.68144041 -0.44810242 68.26725298 -0.49731445 60.85302734 C-0.54021003 54.39112451 -0.58650155 47.92925647 -0.63687855 41.46740746 C-0.66343621 38.04562243 -0.68828815 34.62384411 -0.70907402 31.20201874 C-0.73312595 27.38300257 -0.76317976 23.56407817 -0.79467773 19.74511719 C-0.8004332 18.60935745 -0.80618866 17.47359772 -0.81211853 16.30342102 C-0.82190735 15.26298141 -0.83169617 14.22254181 -0.84178162 13.15057373 C-0.84823417 12.24721661 -0.85468672 11.34385948 -0.8613348 10.4131279 C-0.90269202 8.02460152 -0.90269202 8.02460152 -1.63488865 5.92808914 C-2 4 -2 4 0 0 Z " fill="#199ACA" transform="translate(250,127)"/>
<path d="M0 0 C0.33 0 0.66 0 1 0 C1.13635891 34.45149502 0.92467692 68.87634047 0.06640625 103.31817627 C0.00429635 105.82649143 -0.0548811 108.33485791 -0.11328125 110.84326172 C-0.20642273 114.77099176 -0.31820259 118.69796848 -0.4375 122.625 C-0.46448975 123.69709717 -0.49147949 124.76919434 -0.51928711 125.8737793 C-0.5696814 127.28590698 -0.5696814 127.28590698 -0.62109375 128.7265625 C-0.6461499 129.51627441 -0.67120605 130.30598633 -0.69702148 131.11962891 C-1 133 -1 133 -3 135 C-3.67651207 137.19704511 -3.67651207 137.19704511 -4.125 139.625 C-4.29257812 140.44226563 -4.46015625 141.25953125 -4.6328125 142.1015625 C-4.75398438 142.72804688 -4.87515625 143.35453125 -5 144 C-5.33 144 -5.66 144 -6 144 C-6.02698189 142.37509046 -6.04638757 140.75005367 -6.0625 139.125 C-6.07410156 138.22007812 -6.08570313 137.31515625 -6.09765625 136.3828125 C-6 134 -6 134 -5 132 C-4.68286275 128.36613567 -4.48828964 124.73152308 -4.28125 121.08984375 C-4 118 -4 118 -3 117 C-2.75941507 113.89146193 -2.59113822 110.80562208 -2.46875 107.69140625 C-2.40645203 106.17807457 -2.40645203 106.17807457 -2.34289551 104.63417053 C-1.72652015 88.28045041 -1.65229127 71.90942175 -1.47393799 55.54644775 C-1.4138016 50.06086001 -1.3503262 44.57532661 -1.28125 39.08984375 C-1.27186401 38.33951244 -1.26247803 37.58918114 -1.25280762 36.81611252 C-1.09305639 24.53007788 -0.6953913 12.26808662 0 0 Z " fill="#2AABE2" transform="translate(394,184)"/>
<path d="M0 0 C1.51400391 0.01740234 1.51400391 0.01740234 3.05859375 0.03515625 C4.07050781 0.04417969 5.08242187 0.05320312 6.125 0.0625 C6.90746094 0.07410156 7.68992187 0.08570313 8.49609375 0.09765625 C4.88503853 2.26793692 1.38816401 2.68572122 -2.75390625 3.22265625 C-4.64882812 3.47402344 -4.64882812 3.47402344 -6.58203125 3.73046875 C-8.02835938 3.91222656 -8.02835938 3.91222656 -9.50390625 4.09765625 C-9.50390625 4.75765625 -9.50390625 5.41765625 -9.50390625 6.09765625 C-11.48390625 6.75765625 -13.46390625 7.41765625 -15.50390625 8.09765625 C-15.50390625 8.75765625 -15.50390625 9.41765625 -15.50390625 10.09765625 C-16.77230151 10.60380923 -18.04373727 11.10234724 -19.31640625 11.59765625 C-20.02410156 11.87609375 -20.73179688 12.15453125 -21.4609375 12.44140625 C-23.50390625 13.09765625 -23.50390625 13.09765625 -26.50390625 13.09765625 C-26.54515625 13.69578125 -26.58640625 14.29390625 -26.62890625 14.91015625 C-27.50390625 17.09765625 -27.50390625 17.09765625 -30.44140625 18.84765625 C-33.50390625 20.09765625 -33.50390625 20.09765625 -35.50390625 20.09765625 C-35.83390625 21.08765625 -36.16390625 22.07765625 -36.50390625 23.09765625 C-38.75265538 25.55722561 -41.09622136 27.74778303 -43.625 29.91796875 C-50.3209294 35.67669387 -56.2965176 41.26810166 -58.50390625 50.09765625 C-59.16390625 50.09765625 -59.82390625 50.09765625 -60.50390625 50.09765625 C-60.83390625 51.08765625 -61.16390625 52.07765625 -61.50390625 53.09765625 C-62.1875 51.45703125 -62.1875 51.45703125 -62.50390625 49.09765625 C-61.2890625 46.30078125 -61.2890625 46.30078125 -59.56640625 43.34765625 C-59.00050781 42.3628125 -58.43460938 41.37796875 -57.8515625 40.36328125 C-57.18447266 39.24179688 -57.18447266 39.24179688 -56.50390625 38.09765625 C-55.51390625 38.09765625 -54.52390625 38.09765625 -53.50390625 38.09765625 C-53.23578125 37.54078125 -52.96765625 36.98390625 -52.69140625 36.41015625 C-52.29953125 35.64703125 -51.90765625 34.88390625 -51.50390625 34.09765625 C-51.09140625 33.29328125 -50.67890625 32.48890625 -50.25390625 31.66015625 C-48.47596206 29.05673797 -46.52345456 27.30130839 -44.0546875 25.359375 C-42.24815172 23.93349101 -42.24815172 23.93349101 -39.81640625 21.41015625 C-37.50390625 19.09765625 -37.50390625 19.09765625 -34.50390625 17.09765625 C-33.78008158 15.03840486 -33.78008158 15.03840486 -33.50390625 13.09765625 C-31.52390625 12.76765625 -29.54390625 12.43765625 -27.50390625 12.09765625 C-27.50390625 11.43765625 -27.50390625 10.77765625 -27.50390625 10.09765625 C-24.45694335 8.40331707 -21.67569159 7.60298513 -18.25390625 6.97265625 C-17.361875 6.80507812 -16.46984375 6.6375 -15.55078125 6.46484375 C-14.8753125 6.34367188 -14.19984375 6.2225 -13.50390625 6.09765625 C-13.50390625 5.43765625 -13.50390625 4.77765625 -13.50390625 4.09765625 C-12.79363281 3.89269531 -12.08335938 3.68773437 -11.3515625 3.4765625 C-10.43246094 3.20714844 -9.51335937 2.93773437 -8.56640625 2.66015625 C-7.64988281 2.39332031 -6.73335937 2.12648438 -5.7890625 1.8515625 C-0.20051816 0.00782052 -0.20051816 0.00782052 0 0 Z " fill="#29A6DA" transform="translate(79.50390625,7.90234375)"/>
<path d="M0 0 C0.66 0.33 1.32 0.66 2 1 C2 22.78 2 44.56 2 67 C0.515 67.495 0.515 67.495 -1 68 C-1.02312611 59.28155997 -1.04091646 50.56313044 -1.05181217 41.84466648 C-1.05704041 37.79674258 -1.06413699 33.74883959 -1.07543945 29.70092773 C-1.08627043 25.79764029 -1.09227728 21.89437301 -1.09487724 17.9910717 C-1.09673111 16.49866353 -1.100351 15.00625652 -1.10573006 13.51385689 C-1.11294331 11.43051861 -1.11399083 9.34726469 -1.11352539 7.26391602 C-1.115746 6.07588882 -1.11796661 4.88786163 -1.12025452 3.66383362 C-1 1 -1 1 0 0 Z " fill="#239FD3" transform="translate(398,108)"/>
<path d="M0 0 C2.5942688 -0.36076355 2.5942688 -0.36076355 5.91845703 -0.34057617 C7.15959259 -0.34034958 8.40072815 -0.34012299 9.67947388 -0.33988953 C11.03892372 -0.32456848 12.39836991 -0.30892047 13.7578125 -0.29296875 C15.1450047 -0.28737427 16.53220283 -0.28310347 17.91940308 -0.28010559 C21.57249281 -0.26864497 25.22522534 -0.23916786 28.87817383 -0.20599365 C32.60493131 -0.17531867 36.33174645 -0.16160579 40.05859375 -0.14648438 C47.37255877 -0.11429886 54.68622936 -0.06308839 62 0 C62 0.99 62 1.98 62 3 C40.88 3 19.76 3 -2 3 C-1.34 2.01 -0.68 1.02 0 0 Z " fill="#3DAAD6" transform="translate(162,397)"/>
<path d="M0 0 C0 0.33 0 0.66 0 1 C-1.26457031 1.06058594 -2.52914062 1.12117188 -3.83203125 1.18359375 C-5.49219871 1.26800904 -7.15235437 1.35265655 -8.8125 1.4375 C-9.64587891 1.47681641 -10.47925781 1.51613281 -11.33789062 1.55664062 C-12.14033203 1.59853516 -12.94277344 1.64042969 -13.76953125 1.68359375 C-14.50792236 1.72025146 -15.24631348 1.75690918 -16.00708008 1.79467773 C-18.207495 1.94842141 -18.207495 1.94842141 -21 3 C-23.61986891 3.15473767 -26.21763224 3.2578653 -28.83984375 3.31640625 C-29.62645386 3.33723267 -30.41306396 3.35805908 -31.22351074 3.3795166 C-33.7947416 3.44566529 -36.36607443 3.50445139 -38.9375 3.5625 C-40.24365768 3.59426834 -40.24365768 3.59426834 -41.57620239 3.62667847 C-57.05301753 4.00291968 -72.51858989 4.12589662 -88 4 C-88 3.01 -88 2.02 -88 1 C-79.47934238 0.86780452 -70.95866092 0.73731294 -62.43794632 0.60884857 C-58.47912594 0.54911219 -54.52031533 0.4888434 -50.56152344 0.42724609 C-33.70737758 0.16536639 -16.85683258 -0.09449486 0 0 Z " fill="#50B2DC" transform="translate(312,396)"/>
<path d="M0 0 C0.33 0 0.66 0 1 0 C1.02334825 8.60703471 1.04102816 17.21405581 1.05181217 25.82111454 C1.05699244 29.81931249 1.06399987 33.8174885 1.07543945 37.81567383 C1.08644344 41.68660632 1.09231321 45.55751794 1.09487724 49.42846489 C1.0967004 50.89255539 1.10025895 52.35664498 1.10573006 53.82072639 C1.13678788 62.4904142 0.87823061 71.07266999 0.23927307 79.7190094 C-0.04111821 83.56382641 -0.20064928 87.39304048 -0.31640625 91.24609375 C-0.33718735 91.91294693 -0.35796844 92.57980011 -0.37937927 93.26686096 C-0.44292018 95.32367407 -0.50281181 97.38057191 -0.5625 99.4375 C-0.60587305 100.86263774 -0.64949189 102.28776802 -0.69335938 103.71289062 C-0.79838843 107.14184633 -0.90015415 110.57088897 -1 114 C-1.33 114 -1.66 114 -2 114 C-2.29519636 75.92904092 -1.58247911 38.03801474 0 0 Z " fill="#6BBCE1" transform="translate(2,110)"/>
<path d="M0 0 C0.66 0 1.32 0 2 0 C2.02548786 7.22248577 2.04292452 14.44495981 2.05493164 21.66748047 C2.05994067 24.12126092 2.06674977 26.57503842 2.07543945 29.02880859 C2.08765586 32.56869234 2.09326276 36.10853641 2.09765625 39.6484375 C2.10281754 40.73426117 2.10797882 41.82008484 2.11329651 42.93881226 C2.11429651 56.71227778 2.11429651 56.71227778 1 62 C0.34 62.66 -0.32 63.32 -1 64 C-1.0231271 55.80309439 -1.04091696 47.60620232 -1.05181217 39.40927219 C-1.0570402 35.60348423 -1.06413638 31.79771852 -1.07543945 27.99194336 C-1.0862712 24.32207456 -1.09227744 20.65222722 -1.09487724 16.98234367 C-1.09673097 15.57925008 -1.1003506 14.17615771 -1.10573006 12.7730732 C-1.11294419 10.8143032 -1.11340809 8.8555118 -1.11352539 6.89672852 C-1.115746 5.77976089 -1.11796661 4.66279327 -1.12025452 3.51197815 C-1 1 -1 1 0 0 Z " fill="#39A8D6" transform="translate(398,175)"/>
<path d="M0 0 C-0.94483796 2.35722461 -1.53130764 3.71836423 -3.7421875 5.046875 C-10.21588424 7.18106074 -16.22098627 7.30970113 -23 7 C-23 6.34 -23 5.68 -23 5 C-28.28 4.67 -33.56 4.34 -39 4 C-39 3.67 -39 3.34 -39 3 C-36.36 3 -33.72 3 -31 3 C-31 2.01 -31 1.02 -31 0 C-20.51052868 -0.82544266 -10.49411854 -1.08101063 0 0 Z " fill="#2CADE2" transform="translate(307,1)"/>
<path d="M0 0 C0.33 0 0.66 0 1 0 C1.02516024 6.16658243 1.04307184 12.33313348 1.05493164 18.49975586 C1.05988796 20.58732627 1.06665497 22.67489336 1.07543945 24.76245117 C1.12001541 35.6468521 1.08008362 46.5182166 0.62109375 57.39453125 C0.57517845 58.63030159 0.57517845 58.63030159 0.52833557 59.89103699 C0.24403389 65.7332447 -0.71843757 71.29673905 -2 77 C-2.33 77 -2.66 77 -3 77 C-2.8925771 68.55950963 -2.77995984 60.11911157 -2.66066074 51.67878151 C-2.60543316 47.75984151 -2.55201343 43.84089405 -2.50268555 39.921875 C-2.45503954 36.1417112 -2.40269667 32.36163926 -2.34705925 28.58158493 C-2.32663676 27.13747817 -2.30792349 25.69334623 -2.29092598 24.2491951 C-2.26687994 22.23068749 -2.23626123 20.21226138 -2.20532227 18.19384766 C-2.18977798 17.04357086 -2.1742337 15.89329407 -2.15821838 14.7081604 C-2 12 -2 12 -1 10 C-0.77377919 8.29636178 -0.59111527 6.58671299 -0.4375 4.875 C-0.31181641 3.50988281 -0.31181641 3.50988281 -0.18359375 2.1171875 C-0.12300781 1.41851562 -0.06242187 0.71984375 0 0 Z " fill="#52B2DD" transform="translate(399,227)"/>
<path d="M0 0 C4.43480458 1.45914088 7.68519313 3.8772894 11.1875 6.875 C11.75049805 7.35461182 12.31349609 7.83422363 12.89355469 8.32836914 C27.93448518 21.48812051 27.93448518 21.48812051 29 29 C26.5625 28.25 26.5625 28.25 24 27 C23.1875 24.875 23.1875 24.875 23 23 C22.34 23 21.68 23 21 23 C21 22.34 21 21.68 21 21 C20.01 21 19.02 21 18 21 C18 21.66 18 22.32 18 23 C17.34 23 16.68 23 16 23 C16.33 21.68 16.66 20.36 17 19 C16.01 19 15.02 19 14 19 C14 17.68 14 16.36 14 15 C13.01 15 12.02 15 11 15 C11 14.34 11 13.68 11 13 C10.34 13 9.68 13 9 13 C8.67 13.66 8.34 14.32 8 15 C6 13 6 13 5.6875 9.625 C4.85517522 5.23637844 3.56543403 4.4683774 0 2 C0 1.34 0 0.68 0 0 Z " fill="#1F9FD5" transform="translate(353,17)"/>
<path d="M0 0 C1.79174255 0.00187138 3.58348563 0.00329187 5.37522888 0.00428772 C10.02913901 0.00805633 14.68301657 0.01783633 19.33691406 0.0289917 C24.1106726 0.03932938 28.88443655 0.04381147 33.65820312 0.04882812 C42.97918076 0.05946532 52.30013452 0.07647127 61.62109375 0.09765625 C61.62109375 0.42765625 61.62109375 0.75765625 61.62109375 1.09765625 C60.92936569 1.1057431 60.23763763 1.11382996 59.52494812 1.12216187 C52.86681795 1.20151168 46.20884836 1.28916416 39.5509367 1.38518333 C36.13157005 1.43422966 32.71222175 1.48052955 29.29272461 1.51953125 C13.99803391 1.70009945 -1.20610849 2.10621918 -16.45137024 3.40707397 C-25.44483847 4.17169921 -34.35963636 4.30987437 -43.37890625 4.09765625 C-43.04890625 3.43765625 -42.71890625 2.77765625 -42.37890625 2.09765625 C-37.88202535 1.07030543 -33.31032193 0.80152733 -28.71508789 0.54125977 C-27.97754052 0.49907853 -27.23999315 0.4568973 -26.48009586 0.41343784 C-17.65491434 -0.04800731 -8.83464235 -0.02764027 0 0 Z " fill="#62C7F2" transform="translate(131.37890625,2.90234375)"/>
<path d="M0 0 C0 0.33 0 0.66 0 1 C-3.96 1 -7.92 1 -12 1 C-12 1.66 -12 2.32 -12 3 C-12.66531738 3.0501123 -13.33063477 3.10022461 -14.01611328 3.15185547 C-17.05306969 3.38506072 -20.08897946 3.62992364 -23.125 3.875 C-24.17171875 3.95363281 -25.2184375 4.03226562 -26.296875 4.11328125 C-31.50857228 4.54209179 -36.08093858 5.1080533 -41 7 C-43.875 7.125 -43.875 7.125 -46 7 C-46 7.66 -46 8.32 -46 9 C-47.051875 9.12375 -48.10375 9.2475 -49.1875 9.375 C-52.45958771 9.91140782 -55.00536076 10.63880035 -58 12 C-58 12.66 -58 13.32 -58 14 C-59.19625 14.28875 -60.3925 14.5775 -61.625 14.875 C-68.32355482 16.04078917 -68.32355482 16.04078917 -73.25 20 C-73.4975 20.66 -73.745 21.32 -74 22 C-74.66 22.66 -75.32 23.32 -76 24 C-76.99 23.67 -77.98 23.34 -79 23 C-63.89757403 5.81448079 -37.82189627 1.86289497 -16.13964844 0.13183594 C-10.76144551 -0.1995458 -5.38476282 -0.15582915 0 0 Z " fill="#93CAE2" transform="translate(118,0)"/>
<path d="M0 0 C17.49 0 34.98 0 53 0 C52.34 0.99 51.68 1.98 51 3 C48.82333374 3.36076355 48.82333374 3.36076355 46.09130859 3.34057617 C44.55994766 3.34023628 44.55994766 3.34023628 42.99765015 3.33988953 C41.89240997 3.32440567 40.7871698 3.30892181 39.6484375 3.29296875 C38.5192691 3.28872391 37.39010071 3.28447906 36.22671509 3.28010559 C32.60923727 3.26327132 28.99231031 3.22560975 25.375 3.1875 C22.92709136 3.17245934 20.47917402 3.15876986 18.03125 3.14648438 C12.0206444 3.11335227 6.01036154 3.06310579 0 3 C0 2.01 0 1.02 0 0 Z " fill="#229FD5" transform="translate(109,397)"/>
<path d="M0 0 C1.96874886 0.00502563 3.93749896 0.00958665 5.90625 0.01367188 C10.68753118 0.02459191 15.46875158 0.04179782 20.25 0.0625 C20.25 0.3925 20.25 0.7225 20.25 1.0625 C19.28586182 1.08755615 18.32172363 1.1126123 17.32836914 1.13842773 C13.76312158 1.23235306 10.19807567 1.33260939 6.63305664 1.43481445 C5.08785711 1.47821985 3.54260786 1.51989071 1.99731445 1.55981445 C-0.21939096 1.61738199 -2.4358448 1.68111424 -4.65234375 1.74609375 C-5.3471434 1.76280624 -6.04194305 1.77951874 -6.75779724 1.79673767 C-10.03762029 1.62752856 -10.03762029 1.62752856 -12.75 3.0625 C-15.04126627 3.28051757 -17.33865903 3.43461592 -19.63671875 3.5625 C-20.3313472 3.60310547 -21.02597565 3.64371094 -21.74165344 3.68554688 C-23.97337459 3.81561531 -26.20537486 3.93957346 -28.4375 4.0625 C-30.65173637 4.18590144 -32.86585518 4.310719 -35.07978821 4.43945312 C-37.1020657 4.55685963 -39.12463637 4.66918321 -41.1472168 4.78125 C-44.41957826 5.03670574 -47.5499241 5.32905503 -50.75 6.0625 C-51.08 6.7225 -51.41 7.3825 -51.75 8.0625 C-57.03 8.0625 -62.31 8.0625 -67.75 8.0625 C-67.75 7.7325 -67.75 7.4025 -67.75 7.0625 C-56.23829898 3.58272726 -45.74376907 2.8933089 -33.75 3.0625 C-33.75 2.4025 -33.75 1.7425 -33.75 1.0625 C-22.51892461 -0.24484434 -11.28792987 -0.05035861 0 0 Z " fill="#7DC4E3" transform="translate(139.75,-0.0625)"/>
<path d="M0 0 C0.33 0 0.66 0 1 0 C1.33 2.31 1.66 4.62 2 7 C24.77 7.33 47.54 7.66 71 8 C71 8.66 71 9.32 71 10 C47.57 10 24.14 10 0 10 C0 6.7 0 3.4 0 0 Z " fill="#CCF4FE" transform="translate(25,129)"/>
<path d="M0 0 C0 0.66 0 1.32 0 2 C-7.10048556 3.10562518 -14.07360212 3.12838124 -21.25 3.09765625 C-22.50385498 3.0962413 -23.75770996 3.09482635 -25.04956055 3.09336853 C-28.35717967 3.08874081 -31.66474863 3.07978103 -34.97235107 3.06866455 C-38.35786327 3.05837176 -41.74338286 3.05385417 -45.12890625 3.04882812 C-51.75262354 3.03783447 -58.37630768 3.02112293 -65 3 C-65 2.67 -65 2.34 -65 2 C-58.47760621 1.21041215 -52.00104367 0.71042057 -45.4375 0.4375 C-43.93123047 0.37381226 -43.93123047 0.37381226 -42.39453125 0.30883789 C-28.2699026 -0.21977208 -14.1317331 -0.08771607 0 0 Z " fill="#50B1DB" transform="translate(256,0)"/>
<path d="M0 0 C33.99 0 67.98 0 103 0 C103 0.33 103 0.66 103 1 C74.29 1 45.58 1 16 1 C16 1.66 16 2.32 16 3 C8.08 3 0.16 3 -8 3 C-8 2.67 -8 2.34 -8 2 C-5.36 2 -2.72 2 0 2 C0 1.34 0 0.68 0 0 Z " fill="#2EADE3" transform="translate(168,394)"/>
<path d="M0 0 C0.33 0 0.66 0 1 0 C1.02545424 6.68944482 1.04291058 13.37887703 1.05493164 20.06835938 C1.05994564 22.34180162 1.06675848 24.61524067 1.07543945 26.88867188 C1.08763383 30.16537264 1.09325778 33.4420306 1.09765625 36.71875 C1.10281754 37.72740112 1.10797882 38.73605225 1.11329651 39.77526855 C1.11372955 45.28146462 0.81646966 50.55310207 0 56 C-0.33 56 -0.66 56 -1 56 C-1 45.77 -1 35.54 -1 25 C-1.66 27.31 -2.32 29.62 -3 32 C-3.33 32 -3.66 32 -4 32 C-4.04241723 29.66705225 -4.04092937 27.33297433 -4 25 C-3.67 24.67 -3.34 24.34 -3 24 C-2.8670122 22.39011809 -2.79666237 20.77495575 -2.75390625 19.16015625 C-2.72103516 18.17982422 -2.68816406 17.19949219 -2.65429688 16.18945312 C-2.5932168 14.10883172 -2.53591031 12.02809603 -2.48242188 9.94726562 C-2.44826172 8.96564453 -2.41410156 7.98402344 -2.37890625 6.97265625 C-2.3538501 6.06781494 -2.32879395 5.16297363 -2.30297852 4.23071289 C-2 2 -2 2 0 0 Z " fill="#24A8E1" transform="translate(396,128)"/>
<path d="M0 0 C0.66 0 1.32 0 2 0 C2.17024236 3.79151478 2.33552702 7.58323092 2.5 11.375 C2.54769531 12.43589844 2.59539062 13.49679687 2.64453125 14.58984375 C3.04140057 23.83122924 3.35825392 32.83178606 2 42 C1.67 42 1.34 42 1 42 C-1.15975411 27.86342766 -0.91800731 14.24906994 0 0 Z " fill="#30A1D2" transform="translate(1,272)"/>
<path d="M0 0 C1.51400391 0.01740234 1.51400391 0.01740234 3.05859375 0.03515625 C4.07050781 0.04417969 5.08242187 0.05320312 6.125 0.0625 C6.90746094 0.07410156 7.68992188 0.08570313 8.49609375 0.09765625 C4.88503853 2.26793692 1.38816401 2.68572122 -2.75390625 3.22265625 C-4.64882812 3.47402344 -4.64882812 3.47402344 -6.58203125 3.73046875 C-8.02835938 3.91222656 -8.02835938 3.91222656 -9.50390625 4.09765625 C-9.50390625 4.75765625 -9.50390625 5.41765625 -9.50390625 6.09765625 C-11.48390625 6.75765625 -13.46390625 7.41765625 -15.50390625 8.09765625 C-15.50390625 8.75765625 -15.50390625 9.41765625 -15.50390625 10.09765625 C-24.41390625 13.06765625 -24.41390625 13.06765625 -33.50390625 16.09765625 C-33.50390625 15.10765625 -33.50390625 14.11765625 -33.50390625 13.09765625 C-31.52390625 12.76765625 -29.54390625 12.43765625 -27.50390625 12.09765625 C-27.50390625 11.43765625 -27.50390625 10.77765625 -27.50390625 10.09765625 C-24.45694335 8.40331707 -21.67569159 7.60298513 -18.25390625 6.97265625 C-17.361875 6.80507812 -16.46984375 6.6375 -15.55078125 6.46484375 C-14.8753125 6.34367188 -14.19984375 6.2225 -13.50390625 6.09765625 C-13.50390625 5.43765625 -13.50390625 4.77765625 -13.50390625 4.09765625 C-12.79363281 3.89269531 -12.08335938 3.68773437 -11.3515625 3.4765625 C-10.43246094 3.20714844 -9.51335937 2.93773437 -8.56640625 2.66015625 C-7.64988281 2.39332031 -6.73335937 2.12648438 -5.7890625 1.8515625 C-0.20051816 0.00782052 -0.20051816 0.00782052 0 0 Z " fill="#39B1EC" transform="translate(79.50390625,7.90234375)"/>
<path d="M0 0 C0.33 0 0.66 0 1 0 C1 10.56 1 21.12 1 32 C0.34 32 -0.32 32 -1 32 C-1 37.28 -1 42.56 -1 48 C-1.33 48 -1.66 48 -2 48 C-2.02464775 42.46411467 -2.04283496 36.928261 -2.05493164 31.39233398 C-2.05997244 29.5075627 -2.06680498 27.62279535 -2.07543945 25.73803711 C-2.08751617 23.03498364 -2.09323068 20.33198169 -2.09765625 17.62890625 C-2.10281754 16.78099014 -2.10797882 15.93307404 -2.11329651 15.0594635 C-2.11349195 13.03928932 -2.06206211 11.01922066 -2 9 C-1.67 8.67 -1.34 8.34 -1 8 C-0.76924918 6.65252916 -0.58846937 5.29622435 -0.4375 3.9375 C-0.293125 2.638125 -0.14875 1.33875 0 0 Z " fill="#40ABDB" transform="translate(2,240)"/>
<path d="M0 0 C-0.33 0.66 -0.66 1.32 -1 2 C-3.28515625 2.6328125 -3.28515625 2.6328125 -6.0625 3.125 C-6.98160156 3.29257813 -7.90070313 3.46015625 -8.84765625 3.6328125 C-9.91306641 3.81457031 -9.91306641 3.81457031 -11 4 C-11 4.66 -11 5.32 -11 6 C-14.0469629 7.69433918 -16.82821466 8.49467112 -20.25 9.125 C-21.58804688 9.37636719 -21.58804688 9.37636719 -22.953125 9.6328125 C-23.96632813 9.81457031 -23.96632813 9.81457031 -25 10 C-25 10.66 -25 11.32 -25 12 C-29.455 13.485 -29.455 13.485 -34 15 C-31.97286817 10.43895339 -29.44695507 8.72743403 -25.07421875 6.71484375 C-22.31354395 5.76342475 -19.88886541 5.71111346 -17 6 C-17 5.34 -17 4.68 -17 4 C-11.87405582 0.11670895 -6.25289661 -0.18948172 0 0 Z " fill="#75CCF1" transform="translate(77,8)"/>
<path d="M0 0 C0.66 0.33 1.32 0.66 2 1 C-0.37923909 4.83321853 -2.99322444 6.08008671 -7 8 C-8.70921589 9.5412312 -8.70921589 9.5412312 -10 11 C-12.49818583 12.24909292 -14.52844175 12.28902942 -17.3125 12.5 C-20.95207626 12.77805767 -24.43247982 13.22021417 -28 14 C-28 13.34 -28 12.68 -28 12 C-25.36 11.67 -22.72 11.34 -20 11 C-20 10.01 -20 9.02 -20 8 C-19.01 7.9175 -18.02 7.835 -17 7.75 C-11.41621726 6.95877572 -6.83421599 4.15635356 -2.125 1.1875 C-1.42375 0.795625 -0.7225 0.40375 0 0 Z " fill="#41B7E6" transform="translate(352,376)"/>
<path d="M0 0 C0.33 0 0.66 0 1 0 C1.02938023 4.12498468 1.04692535 8.24994191 1.0625 12.375 C1.07087891 13.53128906 1.07925781 14.68757812 1.08789062 15.87890625 C1.12997506 30.77679579 1.12997506 30.77679579 0 36 C-0.66 36.66 -1.32 37.32 -2 38 C-2.05867342 33.5417231 -2.09382135 29.08354727 -2.125 24.625 C-2.14175781 23.37332031 -2.15851563 22.12164062 -2.17578125 20.83203125 C-2.21348958 13.62974 -1.8081292 6.98586107 0 0 Z " fill="#44ADD8" transform="translate(399,201)"/>
<path d="M0 0 C1.31873695 2.6374739 0.58162216 4.06146097 -0.25390625 6.78125 C-1.74645881 11.21983562 -3.36543778 15.61207328 -5 20 C-5.66 20 -6.32 20 -7 20 C-7 21.98 -7 23.96 -7 26 C-7.66 26 -8.32 26 -9 26 C-9 26.66 -9 27.32 -9 28 C-10.65 28 -12.3 28 -14 28 C-13.34 26.35 -12.68 24.7 -12 23 C-11.34 23 -10.68 23 -10 23 C-9.7525 22.01 -9.505 21.02 -9.25 20 C-8.02356992 15.70749472 -6.06948028 11.93796787 -4 8 C-3.24692781 6.50154003 -2.49682036 5.00158561 -1.75 3.5 C-0.88375 1.7675 -0.88375 1.7675 0 0 Z " fill="#3FB7E3" transform="translate(387,328)"/>
<path d="M0 0 C-0.99 1.485 -0.99 1.485 -2 3 C-4.22265625 3.328125 -4.22265625 3.328125 -7.0625 3.25 C-8.12082031 3.22421875 -9.17914063 3.1984375 -10.26953125 3.171875 C-17.18471393 2.85326972 -24.0927196 2.45830297 -31 2 C-31 1.34 -31 0.68 -31 0 C-20.51052868 -0.82544266 -10.49411854 -1.08101063 0 0 Z " fill="#2DA1D3" transform="translate(307,1)"/>
<path d="M0 0 C2.15136719 -0.35644531 2.15136719 -0.35644531 4.796875 -0.328125 C5.7559375 -0.32296875 6.715 -0.3178125 7.703125 -0.3125 C8.70859375 -0.291875 9.7140625 -0.27125 10.75 -0.25 C11.74 -0.24484375 12.73 -0.2396875 13.75 -0.234375 C18.59793974 -0.18252538 23.23674035 -0.00449693 28 1 C28 1.33 28 1.66 28 2 C23.99908596 2.74984705 20.23250483 3.1195296 16.1640625 3.09765625 C15.10058594 3.09443359 14.03710938 3.09121094 12.94140625 3.08789062 C11.84699219 3.07951172 10.75257813 3.07113281 9.625 3.0625 C8.50738281 3.05798828 7.38976562 3.05347656 6.23828125 3.04882812 C3.49213196 3.03709244 0.74609414 3.02067363 -2 3 C-1.34 2.01 -0.68 1.02 0 0 Z " fill="#31A4D6" transform="translate(162,397)"/>
<path d="M0 0 C0.66 0.33 1.32 0.66 2 1 C2.44921875 2.8125 2.44921875 2.8125 2.6875 5 C2.77386719 5.721875 2.86023438 6.44375 2.94921875 7.1875 C2.97435547 8.0846875 2.97435547 8.0846875 3 9 C2.67 9.33 2.34 9.66 2 10 C1.93650225 12.18659721 1.94086759 14.375212 1.97265625 16.5625 C1.98532321 17.93098687 1.99768258 19.2994766 2.00976562 20.66796875 C2.03438767 22.82251988 2.06213781 24.97692041 2.09594727 27.13134766 C2.21189693 35.01044681 2.17268834 42.3657696 0 50 C-0.33 50 -0.66 50 -1 50 C-1.33 46.37 -1.66 42.74 -2 39 C-1.34 39 -0.68 39 0 39 C-0.03552979 38.06728271 -0.07105957 37.13456543 -0.10766602 36.17358398 C-0.23749835 32.68675144 -0.3616963 29.1998099 -0.48217773 25.71264648 C-0.5352863 24.20833433 -0.59058774 22.70409783 -0.64819336 21.19995117 C-0.73098243 19.02799795 -0.80567338 16.85588773 -0.87890625 14.68359375 C-0.9260376 13.37962646 -0.97316895 12.07565918 -1.02172852 10.73217773 C-1.00004939 7.00848341 -0.61545719 3.66165946 0 0 Z " fill="#25AAE3" transform="translate(5,256)"/>
<path d="M0 0 C0 0.33 0 0.66 0 1 C-7.92 1.495 -7.92 1.495 -16 2 C-16 2.66 -16 3.32 -16 4 C-21.08086796 4.84681133 -25.84828377 5.09038099 -31 5 C-31 5.66 -31 6.32 -31 7 C-33.31 7.33 -35.62 7.66 -38 8 C-36.68 7.34 -35.36 6.68 -34 6 C-34 5.34 -34 4.68 -34 4 C-22.4557797 1.007054 -11.92902718 -0.5850749 0 0 Z " fill="#2DACE2" transform="translate(104,8)"/>
<path d="M0 0 C0.33 0 0.66 0 1 0 C0.55742717 6.25425286 -0.046449 12.42691852 -1 18.625 C-2.59675296 30.00484384 -2.67931193 41.52692797 -3 53 C-3.33 53 -3.66 53 -4 53 C-4.0247345 48.92489562 -4.04287637 44.84982036 -4.05493164 40.7746582 C-4.05995777 39.38858275 -4.06677966 38.00251259 -4.07543945 36.61645508 C-4.08758018 34.62323285 -4.09271021 32.62997181 -4.09765625 30.63671875 C-4.10289307 29.43748779 -4.10812988 28.23825684 -4.11352539 27.00268555 C-4 24 -4 24 -3 21 C-2.87757438 19.62800653 -2.79970317 18.25168325 -2.75390625 16.875 C-2.72103516 16.08609375 -2.68816406 15.2971875 -2.65429688 14.484375 C-2.59310411 12.82826454 -2.53581149 11.17200537 -2.48242188 9.515625 C-2.44826172 8.72671875 -2.41410156 7.9378125 -2.37890625 7.125 C-2.3538501 6.40570313 -2.32879395 5.68640625 -2.30297852 4.9453125 C-2 3 -2 3 0 0 Z " fill="#80C4E0" transform="translate(5,83)"/>
<path d="M0 0 C12.21 0 24.42 0 37 0 C37 0.33 37 0.66 37 1 C31.39 1 25.78 1 20 1 C20 1.66 20 2.32 20 3 C6.3667426 3.18451025 6.3667426 3.18451025 0 2 C0 1.34 0 0.68 0 0 Z " fill="#3CA7D9" transform="translate(256,0)"/>
<path d="M0 0 C0.66 0.33 1.32 0.66 2 1 C1.3503125 1.804375 1.3503125 1.804375 0.6875 2.625 C-1.11207906 4.96070386 -1.11207906 4.96070386 -2.125 7.8125 C-4.46347768 11.78791205 -7.33108468 13.82039093 -11.0390625 16.484375 C-13.11014072 17.85845056 -13.11014072 17.85845056 -14 20 C-14.99 19.67 -15.98 19.34 -17 19 C-16.525625 18.5875 -16.05125 18.175 -15.5625 17.75 C-13.83733482 15.817815 -13.43415125 14.51807725 -13 12 C-12.01 12 -11.02 12 -10 12 C-10 11.34 -10 10.68 -10 10 C-9.360625 9.525625 -8.72125 9.05125 -8.0625 8.5625 C-5.71627037 7.0908635 -5.71627037 7.0908635 -5 4 C-3.37667033 2.61423077 -1.71275535 1.27358732 0 0 Z " fill="#2CABE3" transform="translate(371,356)"/>
<path d="M0 0 C1.40030609 4.42005944 0.07960826 7.69360304 -1.375 11.9375 C-3.53004508 18.3758611 -3.53004508 18.3758611 -5 25 C-5.66 25 -6.32 25 -7 25 C-5.19774518 7.52872974 -5.19774518 7.52872974 -2 1 C-1.34 0.67 -0.68 0.34 0 0 Z " fill="#46B6EA" transform="translate(16,59)"/>
<path d="M0 0 C2.15059309 3.53186832 2.3797728 6.66287993 2.625 10.75 C2.69976562 11.92046875 2.77453125 13.0909375 2.8515625 14.296875 C2.90054687 15.18890625 2.94953125 16.0809375 3 17 C2.01 17.33 1.02 17.66 0 18 C0 17.34 0 16.68 0 16 C-0.99 16 -1.98 16 -3 16 C-2.68954268 14.0830014 -2.37655329 12.16641277 -2.0625 10.25 C-1.88847656 9.18265625 -1.71445312 8.1153125 -1.53515625 7.015625 C-1.11295829 4.63652407 -0.62797116 2.33084789 0 0 Z " fill="#219ACF" transform="translate(395,76)"/>
<path d="M0 0 C2.98076165 2.98076165 4.34542133 5.31921421 6.1875 9.0625 C6.71730469 10.12597656 7.24710937 11.18945312 7.79296875 12.28515625 C9 15 9 15 9 17 C8.01 17.33 7.02 17.66 6 18 C5.34 15.69 4.68 13.38 4 11 C3.01 11 2.02 11 1 11 C0.67 7.37 0.34 3.74 0 0 Z " fill="#209ECC" transform="translate(383,47)"/>
<path d="M0 0 C0.66 0.33 1.32 0.66 2 1 C1.071875 1.721875 0.14375 2.44375 -0.8125 3.1875 C-3.60066772 5.50331931 -5.29977545 7.76957336 -7 11 C-7.99 12.485 -7.99 12.485 -9 14 C-9.99 14 -10.98 14 -12 14 C-12.12375 14.639375 -12.2475 15.27875 -12.375 15.9375 C-12.58125 16.618125 -12.7875 17.29875 -13 18 C-13.66 18.33 -14.32 18.66 -15 19 C-14.66130889 13.58094229 -11.53664701 9.86844331 -8 6 C-5.44117871 3.82706918 -2.7878403 1.86799452 0 0 Z " fill="#5BC5EB" transform="translate(35,32)"/>
<path d="M0 0 C2.39591038 -0.02712351 4.79150957 -0.0468982 7.1875 -0.0625 C7.86103516 -0.07087891 8.53457031 -0.07925781 9.22851562 -0.08789062 C12.95434131 -0.10606538 16.3788042 0.10700608 20 1 C19.67 1.66 19.34 2.32 19 3 C12.73 3 6.46 3 0 3 C0 2.01 0 1.02 0 0 Z " fill="#1B9BCE" transform="translate(109,397)"/>
<path d="M0 0 C0.33 0 0.66 0 1 0 C1 11.22 1 22.44 1 34 C-0.32 34.66 -1.64 35.32 -3 36 C-2.855625 35.38898438 -2.71125 34.77796875 -2.5625 34.1484375 C-0.88009671 25.85325463 -0.84816349 17.83256754 -0.98632812 9.39208984 C-0.99986328 8.46605957 -1.01339844 7.5400293 -1.02734375 6.5859375 C-1.04531006 5.7511084 -1.06327637 4.9162793 -1.08178711 4.05615234 C-1 2 -1 2 0 0 Z " fill="#319ECB" transform="translate(376,186)"/>
<path d="M0 0 C0.66 0.99 1.32 1.98 2 3 C0.0884175 4.79736845 -1.82886184 6.58789474 -3.75 8.375 C-4.55824219 9.13683594 -4.55824219 9.13683594 -5.3828125 9.9140625 C-8.09097827 12.4240698 -10.55080159 14.61027443 -14 16 C-11.03982764 9.46720582 -5.75054379 4.18221366 0 0 Z " fill="#96C9E2" transform="translate(37,23)"/>
<path d="M0 0 C0 0.66 0 1.32 0 2 C-1.32 2 -2.64 2 -4 2 C-4 2.66 -4 3.32 -4 4 C-12.58 4 -21.16 4 -30 4 C-30 3.67 -30 3.34 -30 3 C-29.40461426 2.94465088 -28.80922852 2.88930176 -28.19580078 2.83227539 C-25.50512785 2.57981135 -22.81507714 2.32123184 -20.125 2.0625 C-19.18785156 1.97548828 -18.25070312 1.88847656 -17.28515625 1.79882812 C-16.38925781 1.71181641 -15.49335938 1.62480469 -14.5703125 1.53515625 C-13.32918701 1.41732788 -13.32918701 1.41732788 -12.06298828 1.29711914 C-2.74885584 -0.04433638 -2.74885584 -0.04433638 0 0 Z " fill="#43B6EB" transform="translate(324,390)"/>
<path d="M0 0 C0 3.1474213 -0.600266 4.28801537 -2 7 C-2 7.66 -2 8.32 -2 9 C-4.31 9 -6.62 9 -9 9 C-9.33 9.99 -9.66 10.98 -10 12 C-12.06640625 12.73046875 -12.06640625 12.73046875 -14.5625 13.1875 C-15.38878906 13.34605469 -16.21507812 13.50460937 -17.06640625 13.66796875 C-17.70449219 13.77753906 -18.34257812 13.88710938 -19 14 C-14.7299443 10.46749938 -10.23605327 7.58217523 -5.5234375 4.68359375 C-3.38329215 3.25572588 -1.71756201 1.89623456 0 0 Z " fill="#28A0C9" transform="translate(351,255)"/>
<path d="M0 0 C-1.47993539 2.95987077 -3.70216674 3.34722123 -6.6875 4.6875 C-11.50006117 7.01100225 -14.65003871 9.11736278 -17.71875 13.484375 C-19.26522829 15.31374567 -20.82013331 16.05785423 -23 17 C-21.86329793 13.58989378 -20.35803117 12.50405561 -17.60546875 10.3203125 C-15.79238324 8.87841684 -15.79238324 8.87841684 -13.5625 6.5 C-11.56753333 4.55369106 -9.63722914 2.81925946 -7.4375 1.125 C-6.87933594 0.69445312 -6.32117188 0.26390625 -5.74609375 -0.1796875 C-3.47088151 -1.24857916 -2.31728857 -0.82144584 0 0 Z " fill="#35B0E2" transform="translate(53,23)"/>
<path d="M0 0 C0 0.66 0 1.32 0 2 C1.65 2.33 3.3 2.66 5 3 C5 3.66 5 4.32 5 5 C6.98 5 8.96 5 11 5 C10.67 6.32 10.34 7.64 10 9 C-0.09117362 5.90009699 -0.09117362 5.90009699 -4 3 C-4 2.34 -4 1.68 -4 1 C-2 0 -2 0 0 0 Z " fill="#209ECC" transform="translate(54,383)"/>
<path d="M0 0 C4.10110762 1.40398279 6.98089159 3.37087038 10.3125 6.125 C11.19550781 6.84945313 12.07851563 7.57390625 12.98828125 8.3203125 C13.65214844 8.87460937 14.31601562 9.42890625 15 10 C14.34 10.66 13.68 11.32 13 12 C10 12 10 12 8.3125 10.6875 C7 9 7 9 7 6 C6.21625 5.7525 5.4325 5.505 4.625 5.25 C1.67682892 3.84610901 1.0975223 2.99324263 0 0 Z " fill="#2698CB" transform="translate(353,17)"/>
<path d="M0 0 C2 1 2 1 2 1 Z M-19 1 C-12.73 1 -6.46 1 0 1 C0 1.33 0 1.66 0 2 C-6.34823202 4.30844801 -12.29481414 4.19818283 -19 4 C-19 3.01 -19 2.02 -19 1 Z " fill="#1EA7E0" transform="translate(303,4)"/>
<path d="M0 0 C0.99 0.33 1.98 0.66 3 1 C1.29639246 2.588417 -0.41311829 4.17050381 -2.125 5.75 C-3.07632812 6.63171875 -4.02765625 7.5134375 -5.0078125 8.421875 C-7.91029774 10.92271085 -10.77508474 12.95213096 -14 15 C-14.66 14.67 -15.32 14.34 -16 14 C-14.75 12 -14.75 12 -13 10 C-11.68 10 -10.36 10 -9 10 C-8.773125 9.401875 -8.54625 8.80375 -8.3125 8.1875 C-6.65685748 5.4280958 -4.75894293 4.58639218 -2 3 C-1.34 2.01 -0.68 1.02 0 0 Z " fill="#6EB6D9" transform="translate(369,368)"/>
<path d="M0 0 C-3.48913436 1.9962709 -6.95816025 2.79109218 -10.875 3.625 C-12.06867188 3.88539063 -13.26234375 4.14578125 -14.4921875 4.4140625 C-17.74466875 4.95735001 -20.71170995 5.11061526 -24 5 C-22.68 4.67 -21.36 4.34 -20 4 C-20 3.34 -20 2.68 -20 2 C-19.24074219 1.86722656 -18.48148437 1.73445313 -17.69921875 1.59765625 C-16.70535156 1.42105469 -15.71148437 1.24445313 -14.6875 1.0625 C-13.70136719 0.88847656 -12.71523438 0.71445312 -11.69921875 0.53515625 C-4.48037791 -0.89607558 -4.48037791 -0.89607558 0 0 Z " fill="#6CB5D5" transform="translate(332,393)"/>
<path d="M0 0 C1.65 0 3.3 0 5 0 C1.71842138 5.17609824 -1.45924219 9.85989729 -6 14 C-5.67 11.69 -5.34 9.38 -5 7 C-3.35 6.67 -1.7 6.34 0 6 C0 4.02 0 2.04 0 0 Z " fill="#6FB6DC" transform="translate(378,354)"/>
<path d="M0 0 C0.66 0 1.32 0 2 0 C2.10064005 6.28371307 1.75941669 12.32809949 1 18.5625 C0.90460937 19.38041016 0.80921875 20.19832031 0.7109375 21.04101562 C0.47855491 23.02788675 0.23994484 25.01402794 0 27 C-0.33 27 -0.66 27 -1 27 C-1.02721831 23.9999376 -1.04694378 21.00012744 -1.0625 18 C-1.07087891 17.16082031 -1.07925781 16.32164063 -1.08789062 15.45703125 C-1.10824033 10.20680661 -0.76368207 5.19544338 0 0 Z " fill="#29A9E2" transform="translate(9,84)"/>
<path d="M0 0 C5.02265357 1.18180084 8.0949151 2.44992282 12 6 C11.67 6.66 11.34 7.32 11 8 C8.03 7.505 8.03 7.505 5 7 C5 6.34 5 5.68 5 5 C4.01 5 3.02 5 2 5 C2 4.01 2 3.02 2 2 C1.01 1.67 0.02 1.34 -1 1 C-0.67 0.67 -0.34 0.34 0 0 Z " fill="#239CD0" transform="translate(338,9)"/>
<path d="M0 0 C1.34957855 2.6991571 0.53467854 4.28032439 -0.3359375 7.0546875 C-3.24188121 15.56739318 -3.24188121 15.56739318 -6.1015625 17.19921875 C-6.72804688 17.46347656 -7.35453125 17.72773438 -8 18 C-6.5315116 13.12586829 -5.26926851 8.97997906 -2 5 C-1.28837557 3.35202764 -0.60968047 1.68834592 0 0 Z " fill="#2DABE7" transform="translate(387,328)"/>
<path d="M0 0 C0.99 1.485 0.99 1.485 2 3 C0.08268082 2.88544319 -1.8338675 2.75793742 -3.75 2.625 C-4.81734375 2.55539062 -5.8846875 2.48578125 -6.984375 2.4140625 C-9.80206432 2.0271777 -11.5830366 1.44313834 -14 0 C-8.59264072 -1.98637688 -5.54106741 -2.28161599 0 0 Z " fill="#2498CA" transform="translate(90,395)"/>
<path d="M0 0 C0.66 0.33 1.32 0.66 2 1 C1.34 1.66 0.68 2.32 0 3 C-1.32 3 -2.64 3 -4 3 C-4 3.99 -4 4.98 -4 6 C-5.5778125 6.2165625 -5.5778125 6.2165625 -7.1875 6.4375 C-10.15460549 6.87526966 -13.06794366 7.37804866 -16 8 C-16 7.34 -16 6.68 -16 6 C-13.36 5.67 -10.72 5.34 -8 5 C-8 4.01 -8 3.02 -8 2 C-6.2984375 1.7834375 -6.2984375 1.7834375 -4.5625 1.5625 C-1.19222799 1.38828522 -1.19222799 1.38828522 0 0 Z " fill="#36B1E7" transform="translate(340,382)"/>
<path d="M0 0 C0 1.32 0 2.64 0 4 C-1.98 4 -3.96 4 -6 4 C-6.28875 4.804375 -6.5775 5.60875 -6.875 6.4375 C-8 9 -8 9 -10 10 C-7.4 -0.6 -7.4 -0.6 0 0 Z " fill="#50B9EE" transform="translate(378,356)"/>
<path d="M0 0 C-3.72528736 3.72528736 -9.95202804 3.05452532 -15 3.0625 C-16.33340287 3.04673341 -17.66679321 3.02777514 -19 3 C-18.67 2.34 -18.34 1.68 -18 1 C-12.17592235 -0.57407504 -5.98360949 -0.08713994 0 0 Z " fill="#69C9F6" transform="translate(107,4)"/>
<path d="M0 0 C2.0839403 0.11443603 4.16716493 0.24195547 6.25 0.375 C7.41015625 0.44460937 8.5703125 0.51421875 9.765625 0.5859375 C12.70694334 0.96248308 14.49949011 1.4774123 17 3 C14.73213358 3.27561917 12.46041721 3.51971457 10.1875 3.75 C8.29064453 3.95882813 8.29064453 3.95882813 6.35546875 4.171875 C3 4 3 4 1.05078125 2.015625 C0.70402344 1.35046875 0.35726563 0.6853125 0 0 Z " fill="#2E99CC" transform="translate(307,2)"/>
<path d="M0 0 C1.45947705 0.06006078 2.91779272 0.1488689 4.375 0.25 C5.59316406 0.31960937 5.59316406 0.31960937 6.8359375 0.390625 C9 1 9 1 10.15625 2.9375 C10.4346875 3.618125 10.713125 4.29875 11 5 C13.03317007 6.73425773 13.03317007 6.73425773 15 8 C14.67 8.66 14.34 9.32 14 10 C11.66390677 8.52504318 9.33109833 7.04531255 7 5.5625 C6.33226562 5.14162109 5.66453125 4.72074219 4.9765625 4.28710938 C3.30037435 3.21811183 1.64799163 2.11197395 0 1 C0 0.67 0 0.34 0 0 Z " fill="#2D9FCE" transform="translate(335,135)"/>
<path d="M0 0 C0.33 0 0.66 0 1 0 C1 2.64 1 5.28 1 8 C0.34 8 -0.32 8 -1 8 C-1.12375 8.61875 -1.2475 9.2375 -1.375 9.875 C-2 12 -2 12 -4 14 C-3.8864371 12.35333797 -3.75882619 10.70763918 -3.625 9.0625 C-3.55539063 8.14597656 -3.48578125 7.22945313 -3.4140625 6.28515625 C-3.27742187 5.53105469 -3.14078125 4.77695313 -3 4 C-2.34 3.67 -1.68 3.34 -1 3 C-0.67 2.01 -0.34 1.02 0 0 Z " fill="#8ACAE8" transform="translate(7,72)"/>
<path d="M0 0 C0.66 0.33 1.32 0.66 2 1 C1.57781184 2.6498275 1.13675575 4.29483665 0.6875 5.9375 C0.44386719 6.85402344 0.20023438 7.77054688 -0.05078125 8.71484375 C-0.36402344 9.46894531 -0.67726563 10.22304688 -1 11 C-1.99 11.33 -2.98 11.66 -4 12 C-4.33 12.99 -4.66 13.98 -5 15 C-5.68359375 13.359375 -5.68359375 13.359375 -6 11 C-4.78515625 8.203125 -4.78515625 8.203125 -3.0625 5.25 C-2.49660156 4.26515625 -1.93070313 3.2803125 -1.34765625 2.265625 C-0.90292969 1.51796875 -0.45820313 0.7703125 0 0 Z " fill="#28ACE3" transform="translate(23,46)"/>
<path d="M0 0 C3.39417765 3.12621626 5.6062718 5.56541027 7 10 C4.5625 9.25 4.5625 9.25 2 8 C1.1875 5.875 1.1875 5.875 1 4 C0.34 4 -0.32 4 -1 4 C-0.67 2.68 -0.34 1.36 0 0 Z " fill="#2798CD" transform="translate(375,36)"/>
<path d="M0 0 C0.33 0.66 0.66 1.32 1 2 C0.01 2 -0.98 2 -2 2 C-2 2.66 -2 3.32 -2 4 C-7.80766296 5.5056904 -12.9981863 6.21824777 -19 6 C-19 5.67 -19 5.34 -19 5 C-17.87980469 4.72285156 -16.75960938 4.44570313 -15.60546875 4.16015625 C-14.13279698 3.79433333 -12.66014158 3.42844447 -11.1875 3.0625 C-10.08051758 2.78889648 -10.08051758 2.78889648 -8.95117188 2.50976562 C-5.92939016 1.7577385 -2.95543282 0.98514427 0 0 Z " fill="#309ECC" transform="translate(329,269)"/>
<path d="M0 0 C0 3 0 3 -1.20703125 4.4296875 C-1.73683594 4.90664063 -2.26664063 5.38359375 -2.8125 5.875 C-5.4401404 8.35976634 -7.29462659 10.77873912 -9 14 C-9 11 -9 11 -8 9 C-8.66 9 -9.32 9 -10 9 C-9.67 8.01 -9.34 7.02 -9 6 C-8.4225 5.87625 -7.845 5.7525 -7.25 5.625 C-3.93089319 4.70302589 -2.29110352 2.48202881 0 0 Z " fill="#7DCCE9" transform="translate(31,32)"/>
<path d="M0 0 C-0.969375 0.268125 -1.93875 0.53625 -2.9375 0.8125 C-3.948125 1.204375 -4.95875 1.59625 -6 2 C-6.33 2.99 -6.66 3.98 -7 5 C-10.5625 6.1875 -10.5625 6.1875 -14 7 C-14 6.01 -14 5.02 -14 4 C-12.02 3.67 -10.04 3.34 -8 3 C-8 2.34 -8 1.68 -8 1 C-4.93251126 -0.86240388 -3.40254489 -1.2151946 0 0 Z " fill="#53C1EC" transform="translate(60,17)"/>
<path d="M0 0 C1.46373047 0.02707031 1.46373047 0.02707031 2.95703125 0.0546875 C3.69308594 0.07789063 4.42914063 0.10109375 5.1875 0.125 C2.07984404 1.86528734 -0.7488049 2.63814066 -4.25 3.25 C-5.64025391 3.50136719 -5.64025391 3.50136719 -7.05859375 3.7578125 C-9.68303825 4.10773843 -12.16892353 4.19216891 -14.8125 4.125 C-9.74868418 1.49931772 -5.78922499 -0.1394994 0 0 Z " fill="#53C0E9" transform="translate(82.8125,7.875)"/>
<path d="M0 0 C0.84051229 2.35343441 1.08353007 3.68444196 0.4375 6.125 C-1.59995095 8.78254472 -3.83141251 9.17341196 -7 10 C-6.02223933 8.51990357 -5.0427506 7.04094856 -4.0625 5.5625 C-3.51722656 4.73878906 -2.97195313 3.91507813 -2.41015625 3.06640625 C-1 1 -1 1 0 0 Z " fill="#2B9DCD" transform="translate(365,239)"/>
<path d="M0 0 C0.33 0 0.66 0 1 0 C0.88544319 1.91731918 0.75793742 3.8338675 0.625 5.75 C0.55539062 6.81734375 0.48578125 7.8846875 0.4140625 8.984375 C0 12 0 12 -2 16 C-2 12.04 -2 8.08 -2 4 C-1.34 4 -0.68 4 0 4 C0 2.68 0 1.36 0 0 Z " fill="#6FB3D4" transform="translate(397,308)"/>
<path d="M0 0 C2.64 0.33 5.28 0.66 8 1 C8.33 2.65 8.66 4.3 9 6 C5.06326356 4.68775452 2.77280706 3.08089673 0 0 Z " fill="#2A98CB" transform="translate(38,377)"/>
<path d="M0 0 C0.66 0.33 1.32 0.66 2 1 C-1.85623679 5.82029598 -1.85623679 5.82029598 -5.11328125 6.33203125 C-7.07856214 6.3145776 -9.04166127 6.16596091 -11 6 C-8.66460191 4.44306794 -6.42031244 3.09799354 -3.9375 1.8125 C-2.89916016 1.26529297 -2.89916016 1.26529297 -1.83984375 0.70703125 C-1.23269531 0.47371094 -0.62554687 0.24039063 0 0 Z " fill="#CBF4F9" transform="translate(333,254)"/>
<path d="M0 0 C-1.97420135 2.52259061 -2.96745642 2.9929808 -6.1875 3.6875 C-7.5796875 3.8421875 -7.5796875 3.8421875 -9 4 C-9 3.01 -9 2.02 -9 1 C-2.25 -1.125 -2.25 -1.125 0 0 Z " fill="#50BBEC" transform="translate(345,384)"/>
<path d="M0 0 C4.83628305 0.99043705 9.47618873 1.95698846 14 4 C13.67 4.66 13.34 5.32 13 6 C10.69 5.34 8.38 4.68 6 4 C6 3.34 6 2.68 6 2 C4.35 2 2.7 2 1 2 C0.67 1.34 0.34 0.68 0 0 Z " fill="#D3F5FD" transform="translate(321,131)"/>
<path d="M0 0 C0.66 0.33 1.32 0.66 2 1 C1.34 3.31 0.68 5.62 0 8 C-1.32 8 -2.64 8 -4 8 C-2.87548273 5.0280615 -1.77706209 2.66559313 0 0 Z " fill="#5EBBE5" transform="translate(372,360)"/>
<path d="M0 0 C1.32 0 2.64 0 4 0 C4 2.31 4 4.62 4 7 C3.34 7 2.68 7 2 7 C0.5393715 4.35261084 0 3.10551666 0 0 Z " fill="#229AC6" transform="translate(8,335)"/>
<path d="M0 0 C-0.33 0.99 -0.66 1.98 -1 3 C-4.5625 4.1875 -4.5625 4.1875 -8 5 C-8 4.34 -8 3.68 -8 3 C-7.34 3 -6.68 3 -6 3 C-6 2.34 -6 1.68 -6 1 C-4 0 -4 0 0 0 Z " fill="#6AC0D7" transform="translate(346,386)"/>
<path d="M0 0 C0.99 0.33 1.98 0.66 3 1 C-0.96 4.465 -0.96 4.465 -5 8 C-5.33 7.01 -5.66 6.02 -6 5 C-5.38125 4.731875 -4.7625 4.46375 -4.125 4.1875 C-1.7004767 3.04443152 -1.7004767 3.04443152 0 0 Z " fill="#78B1CE" transform="translate(369,368)"/>
<path d="M0 0 C1 2 1 2 0.25 5.4375 C-0.91749577 8.76486295 -1.51733103 9.76969024 -4 12 C-3.52494322 10.18641846 -3.04483958 8.37415821 -2.5625 6.5625 C-2.29566406 5.55316406 -2.02882813 4.54382813 -1.75390625 3.50390625 C-1 1 -1 1 0 0 Z " fill="#37B3EB" transform="translate(387,328)"/>
<path d="M0 0 C2.97 1.98 2.97 1.98 6 4 C5.34 4.66 4.68 5.32 4 6 C3.01 6 2.02 6 1 6 C0.67 4.02 0.34 2.04 0 0 Z " fill="#1F9EC7" transform="translate(362,23)"/>
<path d="M0 0 C0.66 0 1.32 0 2 0 C2 2.64 2 5.28 2 8 C0.68 6.68 -0.64 5.36 -2 4 C-1.34 4 -0.68 4 0 4 C0 2.68 0 1.36 0 0 Z " fill="#2597D4" transform="translate(30,364)"/>
<path d="M0 0 C0.99 0.33 1.98 0.66 3 1 C1.35 3.64 -0.3 6.28 -2 9 C-3 6 -3 6 -1.5625 2.8125 C-1.046875 1.884375 -0.53125 0.95625 0 0 Z " fill="#74BFD8" transform="translate(386,344)"/>
<path d="M0 0 C2 1.3125 2 1.3125 4 3 C4 3.99 4 4.98 4 6 C2.68 6 1.36 6 0 6 C0 4.02 0 2.04 0 0 Z " fill="#1F9DE3" transform="translate(352,18)"/>
<path d="M0 0 C1.32 0 2.64 0 4 0 C4 1.32 4 2.64 4 4 C2.35 3.67 0.7 3.34 -1 3 C-0.67 2.01 -0.34 1.02 0 0 Z " fill="#1BA1E1" transform="translate(88,391)"/>
<path d="M0 0 C3.37503669 1.1858237 5.64722731 2.27573689 8 5 C5.69 4.67 3.38 4.34 1 4 C0.67 2.68 0.34 1.36 0 0 Z " fill="#239BCD" transform="translate(331,147)"/>
<path d="M0 0 C0.66 0.33 1.32 0.66 2 1 C0.68 3.64 -0.64 6.28 -2 9 C-2.66 8.67 -3.32 8.34 -4 8 C-2.68 5.36 -1.36 2.72 0 0 Z " fill="#3CB6E3" transform="translate(23,46)"/>
</svg>
